<svg xmlns="http://www.w3.org/2000/svg" xmlns:xlink="http://www.w3.org/1999/xlink" width="120" zoomAndPan="magnify" viewBox="0 0 90 30.000001" height="40" preserveAspectRatio="xMidYMid meet" version="1.0"><defs><filter x="0%" y="0%" width="100%" height="100%" id="d982ec1253"><feColorMatrix values="0 0 0 0 1 0 0 0 0 1 0 0 0 0 1 0 0 0 1 0" color-interpolation-filters="sRGB"/></filter><g/><clipPath id="7dc3a90e9d"><path d="M 7 24 L 12.339844 24 L 12.339844 26 L 7 26 Z M 7 24 " clip-rule="nonzero"/></clipPath><clipPath id="67e303b493"><path d="M 8 22 L 12.339844 22 L 12.339844 25 L 8 25 Z M 8 22 " clip-rule="nonzero"/></clipPath><clipPath id="0cb7588080"><path d="M 1.453125 17 L 5 17 L 5 20 L 1.453125 20 Z M 1.453125 17 " clip-rule="nonzero"/></clipPath><clipPath id="01005f2f82"><path d="M 5 7.773438 L 9 7.773438 L 9 11 L 5 11 Z M 5 7.773438 " clip-rule="nonzero"/></clipPath><clipPath id="524df7f3f9"><path d="M 10 25 L 12.339844 25 L 12.339844 28 L 10 28 Z M 10 25 " clip-rule="nonzero"/></clipPath><clipPath id="33cee193ac"><path d="M 30.269531 24 L 36 24 L 36 26 L 30.269531 26 Z M 30.269531 24 " clip-rule="nonzero"/></clipPath><clipPath id="7861f4f60f"><path d="M 30.269531 22 L 35 22 L 35 25 L 30.269531 25 Z M 30.269531 22 " clip-rule="nonzero"/></clipPath><clipPath id="6ae7af3995"><path d="M 38 17 L 41.15625 17 L 41.15625 20 L 38 20 Z M 38 17 " clip-rule="nonzero"/></clipPath><clipPath id="f48f99d63d"><path d="M 34 7.773438 L 37 7.773438 L 37 11 L 34 11 Z M 34 7.773438 " clip-rule="nonzero"/></clipPath><clipPath id="73c5ec0edf"><path d="M 30.269531 25 L 33 25 L 33 28 L 30.269531 28 Z M 30.269531 25 " clip-rule="nonzero"/></clipPath><clipPath id="0be58bec2e"><path d="M 5 0.464844 L 37.644531 0.464844 L 37.644531 12.804688 L 5 12.804688 Z M 5 0.464844 " clip-rule="nonzero"/></clipPath><clipPath id="6613f77e4d"><path d="M 13 18.867188 L 22 18.867188 L 22 21 L 13 21 Z M 13 18.867188 " clip-rule="nonzero"/></clipPath><clipPath id="26171eb8d5"><path d="M 21 18.867188 L 30 18.867188 L 30 21 L 21 21 Z M 21 18.867188 " clip-rule="nonzero"/></clipPath><clipPath id="779e7140f7"><path d="M 9.226562 20 L 22 20 L 22 23.21875 L 9.226562 23.21875 Z M 9.226562 20 " clip-rule="nonzero"/></clipPath><clipPath id="82afe55721"><path d="M 21 20 L 33.902344 20 L 33.902344 23.21875 L 21 23.21875 Z M 21 20 " clip-rule="nonzero"/></clipPath><mask id="769d62e12f"><g filter="url(#d982ec1253)"><rect x="-9" width="108" fill="#000000" y="-3" height="36.000001" fill-opacity="0.92"/></g></mask><clipPath id="ebb644f889"><path d="M 1.128906 1.09375 L 19.980469 1.09375 L 19.980469 4 L 1.128906 4 Z M 1.128906 1.09375 " clip-rule="nonzero"/></clipPath><clipPath id="5463460484"><path d="M 1.128906 1.09375 L 19.980469 1.09375 L 19.980469 4.722656 L 1.128906 4.722656 Z M 1.128906 1.09375 " clip-rule="nonzero"/></clipPath><clipPath id="e0776685de"><path d="M 1.128906 2 L 19.980469 2 L 19.980469 4.722656 L 1.128906 4.722656 Z M 1.128906 2 " clip-rule="nonzero"/></clipPath><clipPath id="7619382988"><rect x="0" width="21" y="0" height="6"/></clipPath></defs><g clip-path="url(#7dc3a90e9d)"><path fill="#ffffff" d="M 12.039062 24.894531 C 12.039062 24.894531 11.753906 25.746094 10.03125 25.929688 C 8.308594 26.113281 7.574219 25.746094 7.574219 25.746094 C 7.574219 25.746094 8.722656 24.851562 9.824219 24.804688 C 10.929688 24.757812 12.039062 24.894531 12.039062 24.894531 Z M 12.039062 24.894531 " fill-opacity="1" fill-rule="nonzero"/></g><g clip-path="url(#67e303b493)"><path fill="#ffffff" d="M 12.039062 24.894531 C 12.039062 24.894531 12.167969 24.003906 10.742188 23.023438 C 9.316406 22.039062 8.496094 22.011719 8.496094 22.011719 C 8.496094 22.011719 8.96875 23.226562 10.113281 23.9375 C 11.054688 24.515625 12.039062 24.894531 12.039062 24.894531 Z M 12.039062 24.894531 " fill-opacity="1" fill-rule="nonzero"/></g><path fill="#ffffff" d="M 9.996094 24.265625 C 9.996094 24.265625 9.121094 23.867188 7.792969 23.867188 C 6.46875 23.867188 5.46875 24.558594 5.46875 24.558594 C 5.46875 24.558594 6.449219 24.953125 7.863281 24.953125 C 9.273438 24.953125 9.996094 24.265625 9.996094 24.265625 Z M 9.996094 24.265625 " fill-opacity="1" fill-rule="nonzero"/><path fill="#ffffff" d="M 8.375 23.421875 C 8.375 23.421875 8.304688 22.460938 7.671875 21.296875 C 7.039062 20.128906 5.957031 19.582031 5.957031 19.582031 C 5.957031 19.582031 6.074219 20.632812 6.75 21.875 C 7.425781 23.113281 8.375 23.421875 8.375 23.421875 Z M 8.375 23.421875 " fill-opacity="1" fill-rule="nonzero"/><path fill="#ffffff" d="M 7.710938 23.300781 C 7.710938 23.300781 6.953125 22.710938 5.664062 22.398438 C 4.375 22.089844 3.242188 22.523438 3.242188 22.523438 C 3.242188 22.523438 4.101562 23.140625 5.476562 23.472656 C 6.847656 23.800781 7.710938 23.300781 7.710938 23.300781 Z M 7.710938 23.300781 " fill-opacity="1" fill-rule="nonzero"/><path fill="#ffffff" d="M 6.570312 22.277344 C 6.570312 22.277344 6.097656 21.4375 5.027344 20.652344 C 3.960938 19.867188 2.746094 19.832031 2.746094 19.832031 C 2.746094 19.832031 3.304688 20.734375 4.441406 21.570312 C 5.582031 22.40625 6.570312 22.277344 6.570312 22.277344 Z M 6.570312 22.277344 " fill-opacity="1" fill-rule="nonzero"/><path fill="#ffffff" d="M 5.4375 20.550781 C 5.4375 20.550781 5.757812 19.691406 5.675781 18.433594 C 5.589844 17.175781 4.875 16.269531 4.875 16.269531 C 4.875 16.269531 4.558594 17.226562 4.648438 18.570312 C 4.738281 19.910156 5.4375 20.550781 5.4375 20.550781 Z M 5.4375 20.550781 " fill-opacity="1" fill-rule="nonzero"/><g clip-path="url(#0cb7588080)"><path fill="#ffffff" d="M 4.539062 19.738281 C 4.539062 19.738281 4.210938 18.972656 3.363281 18.203125 C 2.515625 17.429688 1.480469 17.285156 1.480469 17.285156 C 1.480469 17.285156 1.875 18.113281 2.773438 18.933594 C 3.675781 19.757812 4.539062 19.738281 4.539062 19.738281 Z M 4.539062 19.738281 " fill-opacity="1" fill-rule="nonzero"/></g><path fill="#ffffff" d="M 4.027344 18.042969 C 4.027344 18.042969 3.988281 17.210938 3.464844 16.191406 C 2.945312 15.171875 2.023438 14.675781 2.023438 14.675781 C 2.023438 14.675781 2.105469 15.585938 2.660156 16.671875 C 3.214844 17.757812 4.027344 18.042969 4.027344 18.042969 Z M 4.027344 18.042969 " fill-opacity="1" fill-rule="nonzero"/><path fill="#ffffff" d="M 3.671875 15.5625 C 3.671875 15.5625 3.742188 14.734375 3.363281 13.652344 C 2.984375 12.574219 2.136719 11.957031 2.136719 11.957031 C 2.136719 11.957031 2.097656 12.867188 2.5 14.019531 C 2.902344 15.171875 3.671875 15.5625 3.671875 15.5625 Z M 3.671875 15.5625 " fill-opacity="1" fill-rule="nonzero"/><path fill="#ffffff" d="M 4.015625 13.929688 C 4.015625 13.929688 4.398438 13.1875 4.457031 12.042969 C 4.515625 10.898438 3.964844 10.007812 3.964844 10.007812 C 3.964844 10.007812 3.578125 10.835938 3.515625 12.054688 C 3.453125 13.273438 4.015625 13.929688 4.015625 13.929688 Z M 4.015625 13.929688 " fill-opacity="1" fill-rule="nonzero"/><path fill="#ffffff" d="M 4.953125 11.960938 C 4.953125 11.960938 5.449219 11.292969 5.695312 10.171875 C 5.9375 9.054688 5.539062 8.085938 5.539062 8.085938 C 5.539062 8.085938 5.023438 8.839844 4.765625 10.03125 C 4.503906 11.222656 4.953125 11.960938 4.953125 11.960938 Z M 4.953125 11.960938 " fill-opacity="1" fill-rule="nonzero"/><path fill="#ffffff" d="M 4.070312 16.976562 C 4.070312 16.976562 4.691406 16.421875 5.15625 15.375 C 5.617188 14.328125 5.421875 13.296875 5.421875 13.296875 C 5.421875 13.296875 4.765625 13.933594 4.273438 15.050781 C 3.78125 16.164062 4.070312 16.976562 4.070312 16.976562 Z M 4.070312 16.976562 " fill-opacity="1" fill-rule="nonzero"/><path fill="#ffffff" d="M 4.757812 13.234375 C 4.757812 13.234375 5.550781 12.976562 6.398438 12.210938 C 7.25 11.441406 7.488281 10.421875 7.488281 10.421875 C 7.488281 10.421875 6.632812 10.734375 5.726562 11.554688 C 4.820312 12.371094 4.757812 13.234375 4.757812 13.234375 Z M 4.757812 13.234375 " fill-opacity="1" fill-rule="nonzero"/><g clip-path="url(#01005f2f82)"><path fill="#ffffff" d="M 5.929688 10.941406 C 5.929688 10.941406 6.679688 10.578125 7.414062 9.699219 C 8.148438 8.824219 8.246094 7.78125 8.246094 7.78125 C 8.246094 7.78125 7.441406 8.210938 6.65625 9.144531 C 5.875 10.078125 5.929688 10.941406 5.929688 10.941406 Z M 5.929688 10.941406 " fill-opacity="1" fill-rule="nonzero"/></g><g clip-path="url(#524df7f3f9)"><path fill="#ffffff" d="M 12.160156 25.433594 C 12.160156 26.585938 10.261719 27.839844 10.261719 27.226562 C 10.261719 26.617188 12.160156 25.84375 12.160156 25.433594 Z M 12.160156 25.433594 " fill-opacity="1" fill-rule="nonzero"/></g><g clip-path="url(#33cee193ac)"><path fill="#ffffff" d="M 30.78125 24.894531 C 30.78125 24.894531 31.066406 25.746094 32.789062 25.929688 C 34.511719 26.113281 35.246094 25.746094 35.246094 25.746094 C 35.246094 25.746094 34.097656 24.851562 32.996094 24.804688 C 31.894531 24.757812 30.78125 24.894531 30.78125 24.894531 Z M 30.78125 24.894531 " fill-opacity="1" fill-rule="nonzero"/></g><g clip-path="url(#7861f4f60f)"><path fill="#ffffff" d="M 30.78125 24.894531 C 30.78125 24.894531 30.652344 24.003906 32.078125 23.023438 C 33.503906 22.039062 34.328125 22.011719 34.328125 22.011719 C 34.328125 22.011719 33.855469 23.226562 32.707031 23.9375 C 31.769531 24.515625 30.78125 24.894531 30.78125 24.894531 Z M 30.78125 24.894531 " fill-opacity="1" fill-rule="nonzero"/></g><path fill="#ffffff" d="M 32.824219 24.265625 C 32.824219 24.265625 33.703125 23.867188 35.027344 23.867188 C 36.355469 23.867188 37.351562 24.558594 37.351562 24.558594 C 37.351562 24.558594 36.371094 24.953125 34.960938 24.953125 C 33.546875 24.953125 32.824219 24.265625 32.824219 24.265625 Z M 32.824219 24.265625 " fill-opacity="1" fill-rule="nonzero"/><path fill="#ffffff" d="M 34.449219 23.421875 C 34.449219 23.421875 34.519531 22.460938 35.152344 21.296875 C 35.785156 20.128906 36.867188 19.582031 36.867188 19.582031 C 36.867188 19.582031 36.746094 20.632812 36.070312 21.875 C 35.398438 23.113281 34.449219 23.421875 34.449219 23.421875 Z M 34.449219 23.421875 " fill-opacity="1" fill-rule="nonzero"/><path fill="#ffffff" d="M 35.109375 23.300781 C 35.109375 23.300781 35.871094 22.710938 37.160156 22.398438 C 38.449219 22.089844 39.582031 22.523438 39.582031 22.523438 C 39.582031 22.523438 38.71875 23.140625 37.347656 23.472656 C 35.972656 23.800781 35.109375 23.300781 35.109375 23.300781 Z M 35.109375 23.300781 " fill-opacity="1" fill-rule="nonzero"/><path fill="#ffffff" d="M 36.25 22.277344 C 36.25 22.277344 36.726562 21.4375 37.792969 20.652344 C 38.863281 19.867188 40.074219 19.832031 40.074219 19.832031 C 40.074219 19.832031 39.519531 20.734375 38.378906 21.570312 C 37.242188 22.40625 36.25 22.277344 36.25 22.277344 Z M 36.25 22.277344 " fill-opacity="1" fill-rule="nonzero"/><path fill="#ffffff" d="M 37.382812 20.550781 C 37.382812 20.550781 37.0625 19.691406 37.148438 18.433594 C 37.230469 17.175781 37.949219 16.269531 37.949219 16.269531 C 37.949219 16.269531 38.261719 17.226562 38.171875 18.570312 C 38.082031 19.910156 37.382812 20.550781 37.382812 20.550781 Z M 37.382812 20.550781 " fill-opacity="1" fill-rule="nonzero"/><g clip-path="url(#6ae7af3995)"><path fill="#ffffff" d="M 38.285156 19.738281 C 38.285156 19.738281 38.613281 18.972656 39.460938 18.203125 C 40.304688 17.429688 41.34375 17.285156 41.34375 17.285156 C 41.34375 17.285156 40.949219 18.113281 40.046875 18.933594 C 39.144531 19.757812 38.285156 19.738281 38.285156 19.738281 Z M 38.285156 19.738281 " fill-opacity="1" fill-rule="nonzero"/></g><path fill="#ffffff" d="M 38.792969 18.042969 C 38.792969 18.042969 38.835938 17.210938 39.355469 16.191406 C 39.878906 15.171875 40.800781 14.675781 40.800781 14.675781 C 40.800781 14.675781 40.71875 15.585938 40.164062 16.671875 C 39.609375 17.757812 38.792969 18.042969 38.792969 18.042969 Z M 38.792969 18.042969 " fill-opacity="1" fill-rule="nonzero"/><path fill="#ffffff" d="M 39.148438 15.5625 C 39.148438 15.5625 39.078125 14.734375 39.457031 13.652344 C 39.835938 12.574219 40.683594 11.957031 40.683594 11.957031 C 40.683594 11.957031 40.726562 12.867188 40.320312 14.019531 C 39.917969 15.171875 39.148438 15.5625 39.148438 15.5625 Z M 39.148438 15.5625 " fill-opacity="1" fill-rule="nonzero"/><path fill="#ffffff" d="M 38.804688 13.929688 C 38.804688 13.929688 38.425781 13.1875 38.367188 12.042969 C 38.308594 10.898438 38.859375 10.007812 38.859375 10.007812 C 38.859375 10.007812 39.242188 10.835938 39.304688 12.054688 C 39.367188 13.273438 38.804688 13.929688 38.804688 13.929688 Z M 38.804688 13.929688 " fill-opacity="1" fill-rule="nonzero"/><path fill="#ffffff" d="M 37.867188 11.960938 C 37.867188 11.960938 37.371094 11.292969 37.128906 10.171875 C 36.882812 9.054688 37.28125 8.085938 37.28125 8.085938 C 37.28125 8.085938 37.796875 8.839844 38.058594 10.03125 C 38.316406 11.222656 37.867188 11.960938 37.867188 11.960938 Z M 37.867188 11.960938 " fill-opacity="1" fill-rule="nonzero"/><path fill="#ffffff" d="M 38.75 16.976562 C 38.75 16.976562 38.128906 16.421875 37.667969 15.375 C 37.203125 14.328125 37.398438 13.296875 37.398438 13.296875 C 37.398438 13.296875 38.054688 13.933594 38.546875 15.050781 C 39.042969 16.164062 38.75 16.976562 38.75 16.976562 Z M 38.75 16.976562 " fill-opacity="1" fill-rule="nonzero"/><path fill="#ffffff" d="M 38.066406 13.234375 C 38.066406 13.234375 37.273438 12.976562 36.421875 12.210938 C 35.574219 11.441406 35.332031 10.421875 35.332031 10.421875 C 35.332031 10.421875 36.191406 10.734375 37.09375 11.554688 C 38 12.371094 38.066406 13.234375 38.066406 13.234375 Z M 38.066406 13.234375 " fill-opacity="1" fill-rule="nonzero"/><g clip-path="url(#f48f99d63d)"><path fill="#ffffff" d="M 36.894531 10.941406 C 36.894531 10.941406 36.144531 10.578125 35.410156 9.699219 C 34.671875 8.824219 34.574219 7.78125 34.574219 7.78125 C 34.574219 7.78125 35.382812 8.210938 36.164062 9.144531 C 36.949219 10.078125 36.894531 10.941406 36.894531 10.941406 Z M 36.894531 10.941406 " fill-opacity="1" fill-rule="nonzero"/></g><g clip-path="url(#73c5ec0edf)"><path fill="#ffffff" d="M 30.664062 25.433594 C 30.664062 26.585938 32.558594 27.839844 32.558594 27.226562 C 32.558594 26.617188 30.664062 25.84375 30.664062 25.433594 Z M 30.664062 25.433594 " fill-opacity="1" fill-rule="nonzero"/></g><g clip-path="url(#0be58bec2e)"><path fill="#ffffff" d="M 37.105469 4.394531 L 21.949219 0.597656 C 21.441406 0.472656 20.914062 0.472656 20.414062 0.597656 L 5.25 4.394531 C 4.984375 4.457031 4.984375 4.839844 5.25 4.902344 L 12.699219 6.769531 C 16.917969 5.515625 21.453125 5.453125 25.765625 6.214844 C 21.398438 5.730469 16.800781 6.109375 12.699219 7.691406 L 12.699219 9.820312 C 12.699219 10 12.867188 10.117188 13.039062 10.0625 C 15.453125 9.320312 18.230469 8.886719 21.175781 8.886719 C 24.125 8.886719 26.898438 9.320312 29.328125 10.0625 C 29.496094 10.117188 29.65625 10 29.65625 9.820312 L 29.65625 6.769531 L 32.910156 5.953125 L 32.910156 11.652344 L 32.855469 11.652344 C 32.738281 11.652344 32.644531 11.75 32.644531 11.867188 L 32.644531 12.914062 C 32.644531 13.03125 32.738281 13.125 32.855469 13.125 L 33.492188 13.125 C 33.609375 13.125 33.703125 13.03125 33.703125 12.914062 L 33.703125 11.867188 C 33.703125 11.75 33.609375 11.652344 33.492188 11.652344 L 33.4375 11.652344 L 33.4375 5.824219 L 37.105469 4.902344 C 37.382812 4.839844 37.382812 4.457031 37.105469 4.394531 Z M 37.105469 4.394531 " fill-opacity="1" fill-rule="nonzero"/></g><path fill="#a6a6a6" d="M 10.558594 20.25 L 19.128906 20.347656 C 19.75 20.355469 20.417969 20.351562 20.851562 20.828125 C 21.140625 21.148438 21.3125 21.683594 21.300781 22.570312 C 21.300781 22.652344 21.367188 22.714844 21.449219 22.714844 C 21.53125 22.714844 21.597656 22.652344 21.597656 22.570312 C 21.585938 21.585938 21.359375 21.003906 21.03125 20.660156 C 20.546875 20.144531 19.8125 20.140625 19.128906 20.148438 Z M 10.558594 20.25 " fill-opacity="1" fill-rule="evenodd"/><path fill="#a6a6a6" d="M 12.222656 19.65625 L 19.492188 19.757812 C 20.015625 19.765625 20.578125 19.761719 20.9375 20.160156 C 21.179688 20.429688 21.324219 20.882812 21.3125 21.628906 C 21.3125 21.707031 21.378906 21.773438 21.460938 21.773438 C 21.542969 21.773438 21.609375 21.707031 21.609375 21.628906 C 21.597656 20.785156 21.402344 20.289062 21.121094 19.992188 C 20.703125 19.554688 20.078125 19.546875 19.492188 19.554688 Z M 12.222656 19.65625 " fill-opacity="1" fill-rule="evenodd"/><g clip-path="url(#6613f77e4d)"><path fill="#a6a6a6" d="M 13.628906 18.96875 L 19.796875 19.070312 C 20.234375 19.078125 20.710938 19.074219 21.011719 19.410156 C 21.214844 19.636719 21.332031 20.015625 21.320312 20.640625 C 21.320312 20.722656 21.386719 20.789062 21.46875 20.789062 C 21.550781 20.789062 21.617188 20.722656 21.617188 20.640625 C 21.605469 19.921875 21.4375 19.496094 21.195312 19.242188 C 20.835938 18.867188 20.300781 18.859375 19.796875 18.871094 Z M 13.628906 18.96875 " fill-opacity="1" fill-rule="evenodd"/></g><path fill="#a6a6a6" d="M 32.3125 20.25 L 23.742188 20.148438 C 23.058594 20.140625 22.324219 20.144531 21.839844 20.660156 C 21.507812 21.003906 21.285156 21.585938 21.273438 22.570312 C 21.273438 22.652344 21.339844 22.714844 21.421875 22.714844 C 21.503906 22.714844 21.566406 22.652344 21.566406 22.570312 C 21.558594 21.683594 21.730469 21.148438 22.019531 20.828125 C 22.449219 20.351562 23.121094 20.355469 23.742188 20.347656 Z M 32.3125 20.25 " fill-opacity="1" fill-rule="evenodd"/><path fill="#a6a6a6" d="M 30.675781 19.65625 L 23.40625 19.554688 C 22.820312 19.546875 22.195312 19.554688 21.777344 19.992188 C 21.492188 20.289062 21.300781 20.785156 21.289062 21.628906 C 21.289062 21.707031 21.355469 21.773438 21.4375 21.773438 C 21.515625 21.773438 21.582031 21.707031 21.582031 21.628906 C 21.570312 20.882812 21.714844 20.429688 21.957031 20.160156 C 22.320312 19.761719 22.882812 19.765625 23.40625 19.757812 Z M 30.675781 19.65625 " fill-opacity="1" fill-rule="evenodd"/><g clip-path="url(#26171eb8d5)"><path fill="#a6a6a6" d="M 29.289062 18.96875 L 23.125 18.871094 C 22.621094 18.859375 22.085938 18.867188 21.726562 19.242188 C 21.484375 19.496094 21.316406 19.921875 21.304688 20.640625 C 21.304688 20.722656 21.371094 20.789062 21.453125 20.789062 C 21.535156 20.789062 21.597656 20.722656 21.597656 20.640625 C 21.589844 20.015625 21.707031 19.636719 21.910156 19.410156 C 22.210938 19.074219 22.683594 19.078125 23.125 19.070312 Z M 29.289062 18.96875 " fill-opacity="1" fill-rule="evenodd"/></g><g clip-path="url(#779e7140f7)"><path fill="#ffffff" d="M 9.25 20.640625 L 18.835938 20.90625 C 19.484375 20.921875 20.1875 20.90625 20.636719 21.40625 C 20.890625 21.691406 20.921875 22.152344 21.085938 22.828125 C 21.101562 22.886719 21.125 22.933594 21.160156 22.988281 C 21.199219 23.050781 21.21875 23.0625 21.273438 23.113281 C 21.351562 23.183594 21.347656 23.167969 21.433594 23.238281 C 21.519531 23.167969 21.515625 23.183594 21.59375 23.105469 C 21.644531 23.050781 21.664062 23.035156 21.695312 22.96875 C 21.730469 22.90625 21.746094 22.847656 21.75 22.78125 C 21.84375 21.894531 21.429688 21.335938 21.09375 20.984375 C 20.84375 20.71875 20.539062 20.5625 20.210938 20.472656 C 19.777344 20.359375 19.296875 20.363281 18.835938 20.375 Z M 9.25 20.640625 " fill-opacity="1" fill-rule="evenodd"/></g><g clip-path="url(#82afe55721)"><path fill="#ffffff" d="M 33.589844 20.640625 L 24 20.375 C 23.539062 20.363281 23.058594 20.359375 22.628906 20.472656 C 22.296875 20.5625 21.996094 20.71875 21.746094 20.984375 C 21.40625 21.335938 20.996094 21.894531 21.085938 22.78125 C 21.09375 22.847656 21.109375 22.90625 21.140625 22.96875 C 21.175781 23.035156 21.191406 23.050781 21.246094 23.105469 C 21.320312 23.183594 21.320312 23.167969 21.40625 23.238281 C 21.488281 23.167969 21.488281 23.183594 21.566406 23.113281 C 21.617188 23.0625 21.640625 23.050781 21.679688 22.988281 C 21.710938 22.933594 21.734375 22.886719 21.75 22.828125 C 21.914062 22.152344 21.949219 21.691406 22.203125 21.40625 C 22.648438 20.90625 23.351562 20.921875 24 20.90625 Z M 33.589844 20.640625 " fill-opacity="1" fill-rule="evenodd"/></g><g mask="url(#769d62e12f)"><g transform="matrix(1, 0, 0, 1, 11, 23)"><g clip-path="url(#7619382988)"><g clip-path="url(#ebb644f889)"><path fill="#000000" d="M 19.96875 3.75 L 19.921875 3.796875 C 19.777344 3.664062 19.617188 3.542969 19.441406 3.445312 C 19.269531 3.34375 19.085938 3.257812 18.898438 3.183594 C 18.523438 3.039062 18.132812 2.929688 17.734375 2.847656 C 17.339844 2.769531 16.933594 2.71875 16.527344 2.707031 C 16.121094 2.695312 15.710938 2.714844 15.304688 2.769531 C 15.105469 2.796875 14.902344 2.835938 14.703125 2.878906 C 14.652344 2.886719 14.605469 2.902344 14.554688 2.914062 L 14.40625 2.949219 C 14.304688 2.976562 14.207031 3.003906 14.109375 3.035156 C 13.722656 3.152344 13.34375 3.292969 12.96875 3.414062 C 12.59375 3.539062 12.214844 3.648438 11.835938 3.707031 C 11.648438 3.734375 11.457031 3.753906 11.269531 3.75 C 11.085938 3.746094 10.898438 3.726562 10.71875 3.6875 C 10.359375 3.605469 10.011719 3.449219 9.675781 3.265625 C 9.339844 3.078125 9.015625 2.859375 8.675781 2.644531 C 8.332031 2.429688 7.976562 2.214844 7.578125 2.050781 C 7.378906 1.964844 7.167969 1.898438 6.949219 1.851562 L 6.867188 1.832031 C 6.839844 1.828125 6.8125 1.824219 6.785156 1.820312 L 6.699219 1.808594 C 6.671875 1.804688 6.644531 1.800781 6.617188 1.796875 L 6.53125 1.789062 C 6.503906 1.789062 6.472656 1.789062 6.445312 1.785156 C 6.390625 1.785156 6.332031 1.78125 6.273438 1.785156 C 6.046875 1.789062 5.824219 1.816406 5.609375 1.863281 C 5.394531 1.910156 5.1875 1.972656 4.984375 2.042969 C 4.585938 2.183594 4.210938 2.355469 3.851562 2.515625 C 3.492188 2.671875 3.140625 2.816406 2.789062 2.90625 C 2.4375 3 2.089844 3.039062 1.773438 2.988281 C 1.808594 2.847656 1.839844 2.707031 1.871094 2.5625 C 1.898438 2.417969 1.921875 2.273438 1.9375 2.128906 C 1.949219 2.132812 1.957031 2.132812 1.964844 2.136719 L 1.980469 2.136719 L 1.996094 2.140625 C 2.015625 2.140625 2.03125 2.144531 2.054688 2.148438 C 2.074219 2.148438 2.097656 2.148438 2.121094 2.148438 C 2.128906 2.152344 2.144531 2.148438 2.15625 2.148438 L 2.191406 2.148438 C 2.203125 2.148438 2.214844 2.148438 2.226562 2.148438 L 2.265625 2.144531 C 2.292969 2.144531 2.316406 2.144531 2.34375 2.136719 L 2.425781 2.128906 L 2.515625 2.113281 C 2.644531 2.089844 2.789062 2.050781 2.933594 2.007812 C 3.082031 1.964844 3.238281 1.90625 3.398438 1.847656 L 3.523438 1.800781 L 3.652344 1.75 L 3.921875 1.640625 C 4.109375 1.570312 4.300781 1.496094 4.507812 1.425781 C 4.558594 1.40625 4.609375 1.390625 4.664062 1.375 L 4.824219 1.324219 L 4.988281 1.277344 C 5.015625 1.269531 5.046875 1.261719 5.074219 1.253906 L 5.160156 1.234375 C 5.390625 1.179688 5.636719 1.136719 5.890625 1.117188 C 6.148438 1.09375 6.417969 1.101562 6.679688 1.132812 C 6.945312 1.167969 7.195312 1.230469 7.429688 1.308594 C 7.664062 1.390625 7.878906 1.484375 8.078125 1.589844 C 8.277344 1.691406 8.460938 1.804688 8.632812 1.914062 C 8.980469 2.136719 9.285156 2.359375 9.578125 2.5625 C 9.867188 2.761719 10.144531 2.9375 10.421875 3.066406 C 10.558594 3.132812 10.695312 3.183594 10.828125 3.222656 C 10.964844 3.261719 11.105469 3.285156 11.25 3.296875 C 11.398438 3.308594 11.550781 3.308594 11.710938 3.292969 C 11.871094 3.28125 12.035156 3.253906 12.203125 3.222656 C 12.539062 3.152344 12.886719 3.050781 13.25 2.945312 C 13.609375 2.839844 13.984375 2.722656 14.378906 2.640625 C 14.773438 2.554688 15.171875 2.5 15.570312 2.480469 C 16.367188 2.4375 17.160156 2.519531 17.914062 2.71875 C 18.007812 2.742188 18.101562 2.773438 18.195312 2.796875 C 18.289062 2.828125 18.378906 2.859375 18.472656 2.890625 C 18.5625 2.921875 18.652344 2.957031 18.742188 2.992188 C 18.832031 3.027344 18.921875 3.066406 19.007812 3.105469 C 19.097656 3.144531 19.183594 3.1875 19.269531 3.234375 C 19.355469 3.28125 19.441406 3.332031 19.519531 3.382812 C 19.601562 3.4375 19.683594 3.492188 19.757812 3.554688 C 19.832031 3.617188 19.902344 3.679688 19.972656 3.75 Z M 19.96875 3.75 " fill-opacity="1" fill-rule="nonzero"/></g><g clip-path="url(#5463460484)"><path fill="#df0000" d="M 19.921875 3.796875 L 19.84375 3.878906 C 19.699219 3.753906 19.539062 3.648438 19.371094 3.558594 C 19.199219 3.46875 19.015625 3.394531 18.832031 3.332031 C 18.457031 3.203125 18.070312 3.109375 17.679688 3.046875 L 17.609375 3.035156 L 17.535156 3.027344 L 17.386719 3.007812 C 17.335938 3 17.289062 2.996094 17.238281 2.992188 L 17.089844 2.980469 C 17.042969 2.976562 16.992188 2.976562 16.941406 2.972656 C 16.894531 2.96875 16.84375 2.964844 16.796875 2.964844 L 16.648438 2.960938 C 16.597656 2.960938 16.546875 2.960938 16.5 2.960938 C 16.105469 2.96875 15.710938 3.003906 15.324219 3.074219 L 15.25 3.085938 L 15.179688 3.101562 L 15.035156 3.132812 L 14.964844 3.148438 L 14.890625 3.167969 L 14.75 3.203125 C 14.65625 3.230469 14.5625 3.253906 14.46875 3.285156 C 14.375 3.3125 14.28125 3.34375 14.1875 3.378906 C 13.8125 3.511719 13.441406 3.664062 13.058594 3.804688 C 12.675781 3.945312 12.277344 4.078125 11.855469 4.15625 C 11.75 4.175781 11.640625 4.1875 11.535156 4.199219 C 11.480469 4.203125 11.425781 4.210938 11.371094 4.210938 C 11.34375 4.214844 11.316406 4.214844 11.289062 4.214844 L 11.207031 4.214844 C 10.984375 4.21875 10.761719 4.195312 10.546875 4.152344 C 10.328125 4.109375 10.117188 4.042969 9.917969 3.964844 C 9.71875 3.886719 9.527344 3.796875 9.339844 3.699219 C 8.96875 3.507812 8.625 3.292969 8.28125 3.097656 C 7.941406 2.902344 7.601562 2.726562 7.253906 2.605469 C 7.082031 2.546875 6.90625 2.503906 6.734375 2.480469 C 6.6875 2.476562 6.644531 2.46875 6.601562 2.464844 C 6.558594 2.464844 6.515625 2.460938 6.472656 2.460938 L 6.34375 2.460938 L 6.210938 2.46875 C 5.863281 2.503906 5.511719 2.613281 5.160156 2.757812 C 4.984375 2.832031 4.808594 2.910156 4.632812 3 L 4.089844 3.265625 C 3.902344 3.355469 3.710938 3.441406 3.511719 3.523438 C 3.316406 3.601562 3.109375 3.675781 2.894531 3.734375 C 2.675781 3.792969 2.453125 3.835938 2.21875 3.855469 C 1.984375 3.875 1.742188 3.871094 1.5 3.828125 C 1.527344 3.761719 1.550781 3.691406 1.578125 3.625 C 1.601562 3.554688 1.628906 3.484375 1.648438 3.414062 C 1.695312 3.273438 1.738281 3.132812 1.773438 2.988281 C 2.089844 3.039062 2.4375 3 2.789062 2.90625 C 3.140625 2.816406 3.492188 2.671875 3.851562 2.515625 C 4.210938 2.355469 4.585938 2.183594 4.984375 2.042969 C 5.1875 1.972656 5.394531 1.910156 5.609375 1.863281 C 5.824219 1.816406 6.046875 1.789062 6.273438 1.785156 C 6.332031 1.78125 6.386719 1.785156 6.445312 1.785156 C 6.472656 1.789062 6.5 1.789062 6.53125 1.789062 L 6.613281 1.796875 C 6.644531 1.800781 6.671875 1.804688 6.699219 1.808594 L 6.785156 1.820312 C 6.8125 1.824219 6.839844 1.828125 6.867188 1.832031 L 6.949219 1.851562 C 7.167969 1.898438 7.378906 1.964844 7.578125 2.050781 C 7.976562 2.214844 8.332031 2.429688 8.671875 2.644531 C 9.015625 2.859375 9.339844 3.078125 9.675781 3.265625 C 10.011719 3.449219 10.359375 3.605469 10.71875 3.6875 C 10.898438 3.726562 11.082031 3.746094 11.269531 3.75 C 11.457031 3.75 11.648438 3.734375 11.835938 3.707031 C 12.214844 3.648438 12.589844 3.539062 12.96875 3.414062 C 13.34375 3.292969 13.722656 3.152344 14.109375 3.035156 C 14.207031 3.003906 14.304688 2.976562 14.40625 2.949219 L 14.554688 2.914062 C 14.601562 2.902344 14.652344 2.886719 14.703125 2.878906 C 14.902344 2.835938 15.101562 2.796875 15.304688 2.769531 C 15.710938 2.714844 16.121094 2.695312 16.527344 2.707031 C 16.933594 2.71875 17.335938 2.769531 17.734375 2.847656 C 18.132812 2.925781 18.519531 3.039062 18.898438 3.183594 C 19.085938 3.257812 19.265625 3.34375 19.441406 3.445312 C 19.617188 3.542969 19.777344 3.660156 19.921875 3.796875 Z M 19.921875 3.796875 " fill-opacity="1" fill-rule="nonzero"/></g><g clip-path="url(#e0776685de)"><path fill="#fece00" d="M 19.84375 3.878906 L 19.796875 3.929688 C 19.523438 3.710938 19.191406 3.5625 18.839844 3.457031 C 18.753906 3.429688 18.664062 3.402344 18.574219 3.378906 L 18.441406 3.347656 L 18.371094 3.332031 C 18.351562 3.328125 18.328125 3.320312 18.304688 3.316406 L 18.167969 3.289062 C 18.125 3.28125 18.078125 3.273438 18.03125 3.265625 L 17.894531 3.242188 L 17.828125 3.234375 L 17.757812 3.226562 C 17.027344 3.132812 16.285156 3.15625 15.578125 3.292969 C 15.554688 3.296875 15.535156 3.300781 15.511719 3.304688 L 15.445312 3.320312 L 15.3125 3.347656 C 15.226562 3.371094 15.140625 3.394531 15.054688 3.414062 C 14.96875 3.441406 14.882812 3.464844 14.796875 3.492188 L 14.671875 3.535156 C 14.628906 3.550781 14.585938 3.566406 14.542969 3.582031 C 14.207031 3.703125 13.867188 3.859375 13.511719 4.011719 C 13.15625 4.167969 12.78125 4.324219 12.367188 4.453125 C 12.164062 4.515625 11.945312 4.566406 11.71875 4.605469 C 11.492188 4.644531 11.257812 4.664062 11.015625 4.660156 C 10.773438 4.65625 10.523438 4.628906 10.289062 4.578125 C 10.054688 4.53125 9.832031 4.460938 9.621094 4.382812 C 9.195312 4.222656 8.820312 4.027344 8.472656 3.84375 C 8.125 3.660156 7.804688 3.484375 7.5 3.355469 C 7.351562 3.289062 7.203125 3.234375 7.066406 3.195312 C 6.929688 3.15625 6.796875 3.128906 6.675781 3.121094 C 6.554688 3.109375 6.441406 3.113281 6.328125 3.125 C 6.214844 3.140625 6.09375 3.167969 5.964844 3.210938 C 5.835938 3.25 5.703125 3.304688 5.5625 3.367188 C 5.421875 3.429688 5.273438 3.503906 5.117188 3.585938 C 4.964844 3.667969 4.804688 3.753906 4.632812 3.847656 L 4.503906 3.917969 L 4.367188 3.992188 C 4.273438 4.039062 4.179688 4.089844 4.078125 4.136719 C 3.882812 4.234375 3.671875 4.324219 3.449219 4.410156 C 3.222656 4.496094 2.980469 4.570312 2.71875 4.628906 L 2.628906 4.644531 C 2.597656 4.652344 2.566406 4.65625 2.535156 4.660156 L 2.394531 4.683594 C 2.378906 4.6875 2.363281 4.6875 2.347656 4.6875 C 2.28125 4.695312 2.21875 4.703125 2.152344 4.707031 C 2.085938 4.710938 2.019531 4.714844 1.949219 4.71875 C 1.679688 4.722656 1.394531 4.699219 1.113281 4.640625 C 1.261719 4.375 1.390625 4.105469 1.5 3.828125 C 1.742188 3.871094 1.984375 3.875 2.21875 3.855469 C 2.453125 3.835938 2.679688 3.792969 2.894531 3.734375 C 3.109375 3.675781 3.316406 3.601562 3.511719 3.519531 C 3.710938 3.441406 3.902344 3.355469 4.089844 3.265625 L 4.632812 2.996094 C 4.808594 2.910156 4.984375 2.832031 5.160156 2.757812 C 5.511719 2.613281 5.863281 2.5 6.210938 2.46875 L 6.34375 2.460938 L 6.472656 2.460938 C 6.515625 2.460938 6.558594 2.464844 6.601562 2.464844 C 6.644531 2.46875 6.691406 2.476562 6.734375 2.480469 C 6.90625 2.503906 7.082031 2.546875 7.253906 2.605469 C 7.601562 2.726562 7.941406 2.902344 8.28125 3.097656 C 8.625 3.292969 8.972656 3.507812 9.339844 3.699219 C 9.527344 3.796875 9.71875 3.886719 9.917969 3.964844 C 10.121094 4.042969 10.328125 4.109375 10.546875 4.152344 C 10.761719 4.195312 10.984375 4.21875 11.207031 4.214844 L 11.289062 4.214844 C 11.316406 4.214844 11.34375 4.210938 11.371094 4.210938 C 11.425781 4.210938 11.480469 4.203125 11.535156 4.199219 C 11.640625 4.1875 11.75 4.175781 11.855469 4.15625 C 12.277344 4.078125 12.675781 3.945312 13.058594 3.804688 C 13.445312 3.664062 13.816406 3.511719 14.1875 3.378906 C 14.28125 3.34375 14.375 3.3125 14.46875 3.285156 C 14.5625 3.253906 14.65625 3.230469 14.75 3.203125 L 14.890625 3.164062 L 14.964844 3.148438 L 15.035156 3.132812 L 15.179688 3.101562 L 15.25 3.085938 L 15.324219 3.074219 C 15.710938 3.003906 16.105469 2.96875 16.5 2.960938 C 16.546875 2.960938 16.597656 2.960938 16.648438 2.960938 L 16.796875 2.964844 C 16.84375 2.964844 16.894531 2.96875 16.945312 2.972656 C 16.992188 2.972656 17.042969 2.976562 17.09375 2.980469 L 17.238281 2.992188 C 17.289062 2.996094 17.339844 3 17.386719 3.007812 L 17.535156 3.027344 L 17.609375 3.035156 L 17.679688 3.046875 C 18.070312 3.109375 18.457031 3.203125 18.832031 3.332031 C 19.019531 3.394531 19.199219 3.46875 19.371094 3.558594 C 19.542969 3.648438 19.703125 3.753906 19.84375 3.878906 Z M 19.84375 3.878906 " fill-opacity="1" fill-rule="nonzero"/></g></g></g></g><g fill="#ffffff" fill-opacity="1"><g transform="translate(47.06308, 10.792604)"><g><path d="M 5.65625 0 L 2.546875 -3.796875 L 2.546875 0 L 0.84375 0 L 0.84375 -8.53125 L 2.546875 -8.53125 L 2.546875 -4.703125 L 5.65625 -8.53125 L 7.71875 -8.53125 L 4.203125 -4.296875 L 7.8125 0 Z M 5.65625 0 "/></g></g></g><g fill="#ffffff" fill-opacity="1"><g transform="translate(54.43961, 10.792604)"><g><path d="M 2.546875 -8.53125 L 2.546875 0 L 0.84375 0 L 0.84375 -8.53125 Z M 2.546875 -8.53125 "/></g></g></g><g fill="#ffffff" fill-opacity="1"><g transform="translate(57.113793, 10.792604)"><g><path d="M 6.78125 -5.96875 C 6.582031 -6.320312 6.3125 -6.59375 5.96875 -6.78125 C 5.632812 -6.96875 5.238281 -7.0625 4.78125 -7.0625 C 4.269531 -7.0625 3.816406 -6.945312 3.421875 -6.71875 C 3.035156 -6.488281 2.734375 -6.160156 2.515625 -5.734375 C 2.296875 -5.316406 2.1875 -4.832031 2.1875 -4.28125 C 2.1875 -3.707031 2.296875 -3.207031 2.515625 -2.78125 C 2.742188 -2.363281 3.054688 -2.039062 3.453125 -1.8125 C 3.859375 -1.582031 4.320312 -1.46875 4.84375 -1.46875 C 5.5 -1.46875 6.035156 -1.640625 6.453125 -1.984375 C 6.867188 -2.328125 7.140625 -2.8125 7.265625 -3.4375 L 4.34375 -3.4375 L 4.34375 -4.734375 L 8.953125 -4.734375 L 8.953125 -3.25 C 8.835938 -2.65625 8.59375 -2.101562 8.21875 -1.59375 C 7.84375 -1.09375 7.359375 -0.6875 6.765625 -0.375 C 6.179688 -0.0703125 5.523438 0.078125 4.796875 0.078125 C 3.972656 0.078125 3.226562 -0.101562 2.5625 -0.46875 C 1.894531 -0.84375 1.367188 -1.359375 0.984375 -2.015625 C 0.609375 -2.679688 0.421875 -3.4375 0.421875 -4.28125 C 0.421875 -5.113281 0.609375 -5.863281 0.984375 -6.53125 C 1.367188 -7.195312 1.894531 -7.710938 2.5625 -8.078125 C 3.226562 -8.453125 3.96875 -8.640625 4.78125 -8.640625 C 5.738281 -8.640625 6.570312 -8.40625 7.28125 -7.9375 C 7.988281 -7.46875 8.476562 -6.8125 8.75 -5.96875 Z M 6.78125 -5.96875 "/></g></g></g><g fill="#ffffff" fill-opacity="1"><g transform="translate(65.772788, 10.792604)"><g><path d="M 6.078125 -1.625 L 2.671875 -1.625 L 2.109375 0 L 0.3125 0 L 3.390625 -8.546875 L 5.375 -8.546875 L 8.4375 0 L 6.640625 0 Z M 5.609375 -3 L 4.375 -6.5625 L 3.140625 -3 Z M 5.609375 -3 "/></g></g></g><g fill="#ffffff" fill-opacity="1"><g transform="translate(73.796659, 10.792604)"><g><path d="M 2.546875 -1.359375 L 5.359375 -1.359375 L 5.359375 0 L 0.84375 0 L 0.84375 -8.53125 L 2.546875 -8.53125 Z M 2.546875 -1.359375 "/></g></g></g><g fill="#ffffff" fill-opacity="1"><g transform="translate(78.681552, 10.792604)"><g><path d="M 2.546875 -8.53125 L 2.546875 0 L 0.84375 0 L 0.84375 -8.53125 Z M 2.546875 -8.53125 "/></g></g></g><g fill="#ffffff" fill-opacity="1"><g transform="translate(81.357435, 10.792604)"><g/></g></g><g fill="#ffffff" fill-opacity="1"><g transform="translate(43.719239, 26.657041)"><g><path d="M 0.046875 0 L 1.453125 -3.546875 L 2.25 -3.546875 L 3.65625 0 L 2.796875 0 L 2.5625 -0.609375 L 1.140625 -0.609375 L 0.90625 0 Z M 1.359375 -1.25 L 2.359375 -1.25 L 1.859375 -2.546875 Z M 1.359375 -1.25 "/></g></g></g><g fill="#ffffff" fill-opacity="1"><g transform="translate(50.28357, 26.657041)"><g><path d="M 2.0625 0.078125 C 1.695312 0.078125 1.375 0 1.09375 -0.15625 C 0.820312 -0.320312 0.609375 -0.539062 0.453125 -0.8125 C 0.296875 -1.09375 0.21875 -1.414062 0.21875 -1.78125 C 0.21875 -2.144531 0.296875 -2.460938 0.453125 -2.734375 C 0.609375 -3.015625 0.820312 -3.234375 1.09375 -3.390625 C 1.375 -3.546875 1.691406 -3.625 2.046875 -3.625 C 2.347656 -3.625 2.625 -3.566406 2.875 -3.453125 C 3.125 -3.335938 3.332031 -3.175781 3.5 -2.96875 C 3.675781 -2.757812 3.800781 -2.507812 3.875 -2.21875 L 3.03125 -2.21875 C 2.96875 -2.414062 2.847656 -2.570312 2.671875 -2.6875 C 2.503906 -2.800781 2.304688 -2.859375 2.078125 -2.859375 C 1.878906 -2.859375 1.703125 -2.8125 1.546875 -2.71875 C 1.390625 -2.625 1.265625 -2.492188 1.171875 -2.328125 C 1.085938 -2.171875 1.046875 -1.988281 1.046875 -1.78125 C 1.046875 -1.5625 1.085938 -1.367188 1.171875 -1.203125 C 1.265625 -1.046875 1.382812 -0.921875 1.53125 -0.828125 C 1.6875 -0.742188 1.867188 -0.703125 2.078125 -0.703125 C 2.304688 -0.703125 2.507812 -0.757812 2.6875 -0.875 C 2.863281 -1 2.988281 -1.160156 3.0625 -1.359375 L 3.890625 -1.359375 C 3.835938 -1.066406 3.722656 -0.8125 3.546875 -0.59375 C 3.378906 -0.382812 3.164062 -0.21875 2.90625 -0.09375 C 2.65625 0.0195312 2.375 0.078125 2.0625 0.078125 Z M 2.0625 0.078125 "/></g></g></g><g fill="#ffffff" fill-opacity="1"><g transform="translate(57.238819, 26.657041)"><g><path d="M 0.046875 0 L 1.453125 -3.546875 L 2.25 -3.546875 L 3.65625 0 L 2.796875 0 L 2.5625 -0.609375 L 1.140625 -0.609375 L 0.90625 0 Z M 1.359375 -1.25 L 2.359375 -1.25 L 1.859375 -2.546875 Z M 1.359375 -1.25 "/></g></g></g><g fill="#ffffff" fill-opacity="1"><g transform="translate(63.80315, 26.657041)"><g><path d="M 0.421875 0 L 0.421875 -3.546875 L 1.828125 -3.546875 C 2.203125 -3.546875 2.53125 -3.472656 2.8125 -3.328125 C 3.09375 -3.179688 3.3125 -2.972656 3.46875 -2.703125 C 3.625 -2.441406 3.703125 -2.132812 3.703125 -1.78125 C 3.703125 -1.425781 3.625 -1.113281 3.46875 -0.84375 C 3.3125 -0.582031 3.09375 -0.375 2.8125 -0.21875 C 2.53125 -0.0703125 2.203125 0 1.828125 0 Z M 1.234375 -0.734375 L 1.8125 -0.734375 C 2.019531 -0.734375 2.203125 -0.773438 2.359375 -0.859375 C 2.523438 -0.953125 2.648438 -1.078125 2.734375 -1.234375 C 2.828125 -1.390625 2.875 -1.570312 2.875 -1.78125 C 2.875 -1.988281 2.828125 -2.164062 2.734375 -2.3125 C 2.648438 -2.46875 2.523438 -2.585938 2.359375 -2.671875 C 2.203125 -2.765625 2.019531 -2.8125 1.8125 -2.8125 L 1.234375 -2.8125 Z M 1.234375 -0.734375 "/></g></g></g><g fill="#ffffff" fill-opacity="1"><g transform="translate(70.580712, 26.657041)"><g><path d="M 0.421875 0 L 0.421875 -3.546875 L 2.765625 -3.546875 L 2.765625 -2.875 L 1.234375 -2.875 L 1.234375 -2.140625 L 2.625 -2.140625 L 2.625 -1.46875 L 1.234375 -1.46875 L 1.234375 -0.6875 L 2.8125 -0.6875 L 2.8125 0 Z M 0.421875 0 "/></g></g></g><g fill="#ffffff" fill-opacity="1"><g transform="translate(76.515515, 26.657041)"><g><path d="M 0.421875 0 L 0.421875 -3.546875 L 1.109375 -3.546875 L 2.375 -1.71875 L 3.640625 -3.546875 L 4.3125 -3.546875 L 4.3125 0 L 3.515625 0 L 3.515625 -2.140625 L 2.65625 -0.875 L 2.09375 -0.875 L 1.234375 -2.140625 L 1.234375 0 Z M 0.421875 0 "/></g></g></g><g fill="#ffffff" fill-opacity="1"><g transform="translate(84.115525, 26.657041)"><g><path d="M 1.359375 0 L 1.359375 -1.25 L 0.046875 -3.546875 L 0.96875 -3.546875 L 1.40625 -2.734375 L 1.765625 -2.09375 L 2.109375 -2.734375 L 2.546875 -3.546875 L 3.46875 -3.546875 L 2.15625 -1.25 L 2.15625 0 Z M 1.359375 0 "/></g></g></g><g fill="#ffffff" fill-opacity="1"><g transform="translate(14.208523, 18.385146)"><g><path d="M 0.734375 -5.1875 L 0.328125 -5.015625 L 0.828125 -3.84375 L 1.671875 -5.578125 L 1.15625 -5.359375 L 0.765625 -6.296875 L 3.1875 -7.3125 L 3.578125 -6.375 L 3.15625 -6.203125 L 2.5 -4.859375 L 4.921875 -3.1875 L 5.34375 -3.375 L 5.75 -2.421875 L 2.90625 -1.21875 L 2.5 -2.171875 L 3 -2.375 L 1.703125 -3.296875 L 1.34375 -2.609375 L 1.671875 -1.828125 L 2.078125 -2 L 2.484375 -1.046875 L 0.1875 -0.078125 L -0.21875 -1.03125 L 0.171875 -1.203125 L -1.171875 -4.390625 L -1.5625 -4.21875 L -1.953125 -5.15625 L 0.34375 -6.125 Z M 0.734375 -5.1875 "/></g></g></g><g fill="#ffffff" fill-opacity="1"><g transform="translate(19.060592, 16.187417)"><g><path d="M 0.203125 0 L 0.203125 -1.046875 L 0.6875 -1.046875 L 0.671875 -4.46875 L 0.1875 -4.46875 L 0.1875 -5.515625 L 2.59375 -5.515625 C 3.226562 -5.523438 3.769531 -5.410156 4.21875 -5.171875 C 4.664062 -4.941406 5.003906 -4.625 5.234375 -4.21875 C 5.472656 -3.8125 5.597656 -3.351562 5.609375 -2.84375 C 5.609375 -1.945312 5.34375 -1.25 4.8125 -0.75 C 4.289062 -0.257812 3.546875 -0.0078125 2.578125 0 Z M 2.296875 -1.046875 L 2.609375 -1.046875 C 2.878906 -1.054688 3.101562 -1.140625 3.28125 -1.296875 C 3.457031 -1.460938 3.582031 -1.679688 3.65625 -1.953125 C 3.738281 -2.222656 3.78125 -2.519531 3.78125 -2.84375 C 3.78125 -3.132812 3.738281 -3.40625 3.65625 -3.65625 C 3.570312 -3.90625 3.441406 -4.101562 3.265625 -4.25 C 3.085938 -4.394531 2.863281 -4.46875 2.59375 -4.46875 L 2.28125 -4.46875 Z M 2.296875 -1.046875 "/></g></g></g><g fill="#ffffff" fill-opacity="1"><g transform="translate(23.66382, 15.877112)"><g><path d="M 5.875 2.453125 L 2.96875 1.234375 L 3.359375 0.28125 L 4.046875 0.578125 L 4.109375 0.03125 L 2.609375 -0.59375 L 2.25 -0.171875 L 2.8125 0.0625 L 2.421875 1.015625 L 0.109375 0.046875 L 0.5 -0.90625 L 1 -0.703125 L 3.3125 -3.5 L 3.015625 -3.625 L 3.40625 -4.5625 L 6.203125 -3.390625 L 5.765625 1.296875 L 6.265625 1.5 Z M 3.25 -1.375 L 4.203125 -0.984375 L 4.375 -2.734375 Z M 3.25 -1.375 "/></g></g></g><g fill="#ffffff" fill-opacity="1"><g transform="translate(45.095647, 19.615408)"><g><path d="M 2.921875 -6.515625 C 3.609375 -6.515625 4.207031 -6.378906 4.71875 -6.109375 C 5.238281 -5.835938 5.640625 -5.453125 5.921875 -4.953125 C 6.210938 -4.460938 6.359375 -3.894531 6.359375 -3.25 C 6.359375 -2.59375 6.210938 -2.019531 5.921875 -1.53125 C 5.640625 -1.039062 5.238281 -0.660156 4.71875 -0.390625 C 4.207031 -0.128906 3.609375 0 2.921875 0 L 0.640625 0 L 0.640625 -6.515625 Z M 2.875 -1.109375 C 3.5625 -1.109375 4.085938 -1.296875 4.453125 -1.671875 C 4.828125 -2.046875 5.015625 -2.570312 5.015625 -3.25 C 5.015625 -3.925781 4.828125 -4.453125 4.453125 -4.828125 C 4.085938 -5.210938 3.5625 -5.40625 2.875 -5.40625 L 1.953125 -5.40625 L 1.953125 -1.109375 Z M 2.875 -1.109375 "/></g></g></g><g fill="#ffffff" fill-opacity="1"><g transform="translate(51.229306, 19.615408)"><g><path d="M 1.953125 -5.453125 L 1.953125 -3.828125 L 4.140625 -3.828125 L 4.140625 -2.796875 L 1.953125 -2.796875 L 1.953125 -1.0625 L 4.421875 -1.0625 L 4.421875 0 L 0.640625 0 L 0.640625 -6.515625 L 4.421875 -6.515625 L 4.421875 -5.453125 Z M 1.953125 -5.453125 "/></g></g></g><g fill="#ffffff" fill-opacity="1"><g transform="translate(55.638366, 19.615408)"><g><path d="M 1.9375 -6.515625 L 1.9375 -2.484375 C 1.9375 -2.035156 2.050781 -1.695312 2.28125 -1.46875 C 2.507812 -1.238281 2.832031 -1.125 3.25 -1.125 C 3.664062 -1.125 3.988281 -1.238281 4.21875 -1.46875 C 4.457031 -1.695312 4.578125 -2.035156 4.578125 -2.484375 L 4.578125 -6.515625 L 5.890625 -6.515625 L 5.890625 -2.484375 C 5.890625 -1.929688 5.769531 -1.460938 5.53125 -1.078125 C 5.289062 -0.703125 4.96875 -0.414062 4.5625 -0.21875 C 4.164062 -0.03125 3.722656 0.0625 3.234375 0.0625 C 2.742188 0.0625 2.300781 -0.03125 1.90625 -0.21875 C 1.507812 -0.414062 1.195312 -0.703125 0.96875 -1.078125 C 0.738281 -1.460938 0.625 -1.929688 0.625 -2.484375 L 0.625 -6.515625 Z M 1.9375 -6.515625 "/></g></g></g><g fill="#ffffff" fill-opacity="1"><g transform="translate(61.585579, 19.615408)"><g><path d="M 5.078125 -6.515625 L 5.078125 -5.453125 L 3.34375 -5.453125 L 3.34375 0 L 2.03125 0 L 2.03125 -5.453125 L 0.296875 -5.453125 L 0.296875 -6.515625 Z M 5.078125 -6.515625 "/></g></g></g><g fill="#ffffff" fill-opacity="1"><g transform="translate(66.414135, 19.615408)"><g><path d="M 2.890625 0.0625 C 2.429688 0.0625 2.019531 -0.015625 1.65625 -0.171875 C 1.300781 -0.328125 1.015625 -0.550781 0.796875 -0.84375 C 0.585938 -1.132812 0.476562 -1.476562 0.46875 -1.875 L 1.875 -1.875 C 1.894531 -1.601562 1.988281 -1.390625 2.15625 -1.234375 C 2.332031 -1.078125 2.566406 -1 2.859375 -1 C 3.171875 -1 3.410156 -1.070312 3.578125 -1.21875 C 3.753906 -1.375 3.84375 -1.566406 3.84375 -1.796875 C 3.84375 -1.992188 3.78125 -2.15625 3.65625 -2.28125 C 3.539062 -2.40625 3.394531 -2.5 3.21875 -2.5625 C 3.039062 -2.632812 2.796875 -2.71875 2.484375 -2.8125 C 2.066406 -2.9375 1.722656 -3.054688 1.453125 -3.171875 C 1.191406 -3.296875 0.96875 -3.476562 0.78125 -3.71875 C 0.59375 -3.96875 0.5 -4.296875 0.5 -4.703125 C 0.5 -5.085938 0.59375 -5.421875 0.78125 -5.703125 C 0.976562 -5.992188 1.25 -6.21875 1.59375 -6.375 C 1.945312 -6.53125 2.347656 -6.609375 2.796875 -6.609375 C 3.460938 -6.609375 4.003906 -6.441406 4.421875 -6.109375 C 4.847656 -5.785156 5.082031 -5.332031 5.125 -4.75 L 3.6875 -4.75 C 3.675781 -4.96875 3.582031 -5.148438 3.40625 -5.296875 C 3.226562 -5.441406 2.992188 -5.515625 2.703125 -5.515625 C 2.441406 -5.515625 2.234375 -5.445312 2.078125 -5.3125 C 1.929688 -5.1875 1.859375 -5 1.859375 -4.75 C 1.859375 -4.582031 1.914062 -4.441406 2.03125 -4.328125 C 2.144531 -4.210938 2.285156 -4.117188 2.453125 -4.046875 C 2.628906 -3.972656 2.875 -3.890625 3.1875 -3.796875 C 3.601562 -3.671875 3.945312 -3.546875 4.21875 -3.421875 C 4.488281 -3.296875 4.71875 -3.109375 4.90625 -2.859375 C 5.101562 -2.609375 5.203125 -2.285156 5.203125 -1.890625 C 5.203125 -1.535156 5.109375 -1.207031 4.921875 -0.90625 C 4.742188 -0.613281 4.476562 -0.378906 4.125 -0.203125 C 3.78125 -0.0234375 3.367188 0.0625 2.890625 0.0625 Z M 2.890625 0.0625 "/></g></g></g><g fill="#ffffff" fill-opacity="1"><g transform="translate(71.540993, 19.615408)"><g><path d="M 0.328125 -3.265625 C 0.328125 -3.898438 0.46875 -4.472656 0.75 -4.984375 C 1.039062 -5.492188 1.4375 -5.890625 1.9375 -6.171875 C 2.445312 -6.453125 3.007812 -6.59375 3.625 -6.59375 C 4.351562 -6.59375 4.988281 -6.40625 5.53125 -6.03125 C 6.082031 -5.65625 6.46875 -5.140625 6.6875 -4.484375 L 5.1875 -4.484375 C 5.039062 -4.796875 4.832031 -5.03125 4.5625 -5.1875 C 4.289062 -5.34375 3.976562 -5.421875 3.625 -5.421875 C 3.238281 -5.421875 2.898438 -5.332031 2.609375 -5.15625 C 2.316406 -4.976562 2.085938 -4.726562 1.921875 -4.40625 C 1.753906 -4.082031 1.671875 -3.703125 1.671875 -3.265625 C 1.671875 -2.835938 1.753906 -2.457031 1.921875 -2.125 C 2.085938 -1.800781 2.316406 -1.550781 2.609375 -1.375 C 2.898438 -1.195312 3.238281 -1.109375 3.625 -1.109375 C 3.976562 -1.109375 4.289062 -1.1875 4.5625 -1.34375 C 4.832031 -1.5 5.039062 -1.734375 5.1875 -2.046875 L 6.6875 -2.046875 C 6.46875 -1.378906 6.085938 -0.859375 5.546875 -0.484375 C 5.003906 -0.117188 4.363281 0.0625 3.625 0.0625 C 3.007812 0.0625 2.445312 -0.078125 1.9375 -0.359375 C 1.4375 -0.648438 1.039062 -1.046875 0.75 -1.546875 C 0.46875 -2.046875 0.328125 -2.617188 0.328125 -3.265625 Z M 0.328125 -3.265625 "/></g></g></g><g fill="#ffffff" fill-opacity="1"><g transform="translate(78.150075, 19.615408)"><g><path d="M 6.046875 -6.515625 L 6.046875 0 L 4.734375 0 L 4.734375 -2.765625 L 1.953125 -2.765625 L 1.953125 0 L 0.640625 0 L 0.640625 -6.515625 L 1.953125 -6.515625 L 1.953125 -3.828125 L 4.734375 -3.828125 L 4.734375 -6.515625 Z M 6.046875 -6.515625 "/></g></g></g></svg>