<svg xmlns="http://www.w3.org/2000/svg" xmlns:xlink="http://www.w3.org/1999/xlink" width="794" zoomAndPan="magnify" viewBox="0 0 595.5 842.249979" height="1123" preserveAspectRatio="xMidYMid meet" version="1.0"><defs><filter x="0%" y="0%" width="100%" height="100%" id="cebb39117b"><feColorMatrix values="0 0 0 0 1 0 0 0 0 1 0 0 0 0 1 0 0 0 1 0" color-interpolation-filters="sRGB"/></filter><g/><clipPath id="bb65c9e0c8"><path d="M 75.679688 403 L 93 403 L 93 418 L 75.679688 418 Z M 75.679688 403 " clip-rule="nonzero"/></clipPath><clipPath id="c75dab4a29"><path d="M 100 351.730469 L 113 351.730469 L 113 370 L 100 370 Z M 100 351.730469 " clip-rule="nonzero"/></clipPath><clipPath id="cc17fc554e"><path d="M 277 403 L 294.445312 403 L 294.445312 418 L 277 418 Z M 277 403 " clip-rule="nonzero"/></clipPath><clipPath id="62de49cc39"><path d="M 257 351.730469 L 271 351.730469 L 271 370 L 257 370 Z M 257 351.730469 " clip-rule="nonzero"/></clipPath><clipPath id="7aac6635de"><path d="M 95.058594 311.640625 L 272.652344 311.640625 L 272.652344 381.328125 L 95.058594 381.328125 Z M 95.058594 311.640625 " clip-rule="nonzero"/></clipPath><clipPath id="cdc17ffee7"><path d="M 142 412.574219 L 187 412.574219 L 187 424 L 142 424 Z M 142 412.574219 " clip-rule="nonzero"/></clipPath><clipPath id="c1f553a16b"><path d="M 184 412.574219 L 229 412.574219 L 229 424 L 184 424 Z M 184 412.574219 " clip-rule="nonzero"/></clipPath><clipPath id="0fa1189795"><path d="M 118.320312 420 L 188 420 L 188 436.550781 L 118.320312 436.550781 Z M 118.320312 420 " clip-rule="nonzero"/></clipPath><clipPath id="2d9bab9bca"><path d="M 183 420 L 251.699219 420 L 251.699219 436.550781 L 183 436.550781 Z M 183 420 " clip-rule="nonzero"/></clipPath><mask id="a7d1736b75"><g filter="url(#cebb39117b)"><rect x="-59.55" width="714.6" fill="#000000" y="-84.224998" height="1010.699974" fill-opacity="0.92"/></g></mask><clipPath id="83d7af1fc1"><path d="M 3 0.257812 L 103.664062 0.257812 L 103.664062 16 L 3 16 Z M 3 0.257812 " clip-rule="nonzero"/></clipPath><clipPath id="b263069aa2"><path d="M 2 4 L 103.664062 4 L 103.664062 18 L 2 18 Z M 2 4 " clip-rule="nonzero"/></clipPath><clipPath id="cc6c5e4a08"><path d="M 0.257812 7 L 103 7 L 103 20.488281 L 0.257812 20.488281 Z M 0.257812 7 " clip-rule="nonzero"/></clipPath><clipPath id="6aa6ddc913"><rect x="0" width="104" y="0" height="22"/></clipPath></defs><path fill="#000000" d="M 133.804688 445.734375 C 133.804688 445.734375 132.234375 450.40625 122.78125 451.414062 C 113.328125 452.425781 109.292969 450.40625 109.292969 450.40625 C 109.292969 450.40625 115.597656 445.492188 121.648438 445.238281 C 127.699219 444.988281 133.804688 445.734375 133.804688 445.734375 Z M 133.804688 445.734375 " fill-opacity="1" fill-rule="nonzero"/><path fill="#000000" d="M 133.804688 445.734375 C 133.804688 445.734375 134.515625 440.847656 126.683594 435.453125 C 118.855469 430.0625 114.347656 429.910156 114.347656 429.910156 C 114.347656 429.910156 116.933594 436.570312 123.234375 440.46875 C 128.386719 443.65625 133.804688 445.734375 133.804688 445.734375 Z M 133.804688 445.734375 " fill-opacity="1" fill-rule="nonzero"/><path fill="#000000" d="M 122.589844 442.277344 C 122.589844 442.277344 117.769531 440.101562 110.488281 440.101562 C 103.207031 440.101562 97.726562 443.882812 97.726562 443.882812 C 97.726562 443.882812 103.113281 446.054688 110.867188 446.054688 C 118.621094 446.058594 122.589844 442.277344 122.589844 442.277344 Z M 122.589844 442.277344 " fill-opacity="1" fill-rule="nonzero"/><path fill="#000000" d="M 113.679688 437.644531 C 113.679688 437.644531 113.289062 432.367188 109.8125 425.972656 C 106.339844 419.574219 100.398438 416.558594 100.398438 416.558594 C 100.398438 416.558594 101.058594 422.332031 104.761719 429.148438 C 108.460938 435.957031 113.679688 437.644531 113.679688 437.644531 Z M 113.679688 437.644531 " fill-opacity="1" fill-rule="nonzero"/><path fill="#000000" d="M 110.042969 436.984375 C 110.042969 436.984375 105.867188 433.742188 98.789062 432.035156 C 91.710938 430.332031 85.496094 432.722656 85.496094 432.722656 C 85.496094 432.722656 90.226562 436.101562 97.761719 437.917969 C 105.296875 439.730469 110.042969 436.984375 110.042969 436.984375 Z M 110.042969 436.984375 " fill-opacity="1" fill-rule="nonzero"/><path fill="#000000" d="M 103.777344 431.359375 C 103.777344 431.359375 101.179688 426.753906 95.308594 422.449219 C 89.4375 418.140625 82.78125 417.941406 82.78125 417.941406 C 82.78125 417.941406 85.839844 422.886719 92.089844 427.472656 C 98.339844 432.0625 103.777344 431.359375 103.777344 431.359375 Z M 103.777344 431.359375 " fill-opacity="1" fill-rule="nonzero"/><path fill="#000000" d="M 97.558594 421.886719 C 97.558594 421.886719 99.320312 417.171875 98.859375 410.261719 C 98.398438 403.351562 94.464844 398.382812 94.464844 398.382812 C 94.464844 398.382812 92.738281 403.636719 93.226562 411 C 93.71875 418.355469 97.558594 421.886719 97.558594 421.886719 Z M 97.558594 421.886719 " fill-opacity="1" fill-rule="nonzero"/><g clip-path="url(#bb65c9e0c8)"><path fill="#000000" d="M 92.621094 417.421875 C 92.621094 417.421875 90.808594 413.226562 86.164062 408.984375 C 81.519531 404.746094 75.820312 403.964844 75.820312 403.964844 C 75.820312 403.964844 77.992188 408.492188 82.9375 413.003906 C 87.882812 417.519531 92.621094 417.421875 92.621094 417.421875 Z M 92.621094 417.421875 " fill-opacity="1" fill-rule="nonzero"/></g><path fill="#000000" d="M 89.820312 408.121094 C 89.820312 408.121094 89.59375 403.554688 86.734375 397.957031 C 83.871094 392.355469 78.804688 389.621094 78.804688 389.621094 C 78.804688 389.621094 79.253906 394.625 82.300781 400.585938 C 85.347656 406.554688 89.820312 408.121094 89.820312 408.121094 Z M 89.820312 408.121094 " fill-opacity="1" fill-rule="nonzero"/><path fill="#000000" d="M 87.863281 394.5 C 87.863281 394.5 88.257812 389.945312 86.171875 384.011719 C 84.089844 378.074219 79.441406 374.6875 79.441406 374.6875 C 79.441406 374.6875 79.210938 379.703125 81.425781 386.023438 C 83.644531 392.34375 87.863281 394.5 87.863281 394.5 Z M 87.863281 394.5 " fill-opacity="1" fill-rule="nonzero"/><path fill="#000000" d="M 89.75 385.523438 C 89.75 385.523438 91.839844 381.460938 92.164062 375.175781 C 92.484375 368.894531 89.46875 363.996094 89.46875 363.996094 C 89.46875 363.996094 87.351562 368.550781 87.007812 375.238281 C 86.660156 381.929688 89.75 385.523438 89.75 385.523438 Z M 89.75 385.523438 " fill-opacity="1" fill-rule="nonzero"/><path fill="#000000" d="M 94.902344 374.722656 C 94.902344 374.722656 97.621094 371.050781 98.960938 364.90625 C 100.300781 358.761719 98.117188 353.4375 98.117188 353.4375 C 98.117188 353.4375 95.289062 357.585938 93.863281 364.128906 C 92.4375 370.675781 94.902344 374.722656 94.902344 374.722656 Z M 94.902344 374.722656 " fill-opacity="1" fill-rule="nonzero"/><path fill="#000000" d="M 90.058594 402.261719 C 90.058594 402.261719 93.460938 399.214844 96.003906 393.460938 C 98.546875 387.707031 97.476562 382.054688 97.476562 382.054688 C 97.476562 382.054688 93.875 385.550781 91.167969 391.675781 C 88.457031 397.804688 90.058594 402.261719 90.058594 402.261719 Z M 90.058594 402.261719 " fill-opacity="1" fill-rule="nonzero"/><path fill="#000000" d="M 93.820312 381.699219 C 93.820312 381.699219 98.167969 380.300781 102.835938 376.082031 C 107.5 371.863281 108.824219 366.265625 108.824219 366.265625 C 108.824219 366.265625 104.109375 367.992188 99.144531 372.484375 C 94.171875 376.976562 93.820312 381.699219 93.820312 381.699219 Z M 93.820312 381.699219 " fill-opacity="1" fill-rule="nonzero"/><g clip-path="url(#c75dab4a29)"><path fill="#000000" d="M 100.246094 369.117188 C 100.246094 369.117188 104.363281 367.128906 108.402344 362.3125 C 112.441406 357.492188 112.984375 351.761719 112.984375 351.761719 C 112.984375 351.761719 108.550781 354.121094 104.25 359.253906 C 99.949219 364.386719 100.246094 369.117188 100.246094 369.117188 Z M 100.246094 369.117188 " fill-opacity="1" fill-rule="nonzero"/></g><path fill="#000000" d="M 134.457031 448.691406 C 134.457031 455.019531 124.050781 461.90625 124.050781 458.542969 C 124.050781 455.179688 134.457031 450.9375 134.457031 448.691406 Z M 134.457031 448.691406 " fill-opacity="1" fill-rule="nonzero"/><path fill="#000000" d="M 236.578125 445.734375 C 236.578125 445.734375 238.144531 450.40625 247.601562 451.414062 C 257.054688 452.425781 261.089844 450.40625 261.089844 450.40625 C 261.089844 450.40625 254.785156 445.492188 248.734375 445.238281 C 242.683594 444.988281 236.578125 445.734375 236.578125 445.734375 Z M 236.578125 445.734375 " fill-opacity="1" fill-rule="nonzero"/><path fill="#000000" d="M 236.578125 445.734375 C 236.578125 445.734375 235.867188 440.847656 243.695312 435.453125 C 251.527344 430.0625 256.035156 429.910156 256.035156 429.910156 C 256.035156 429.910156 253.449219 436.570312 247.144531 440.46875 C 241.996094 443.65625 236.578125 445.734375 236.578125 445.734375 Z M 236.578125 445.734375 " fill-opacity="1" fill-rule="nonzero"/><path fill="#000000" d="M 247.789062 442.277344 C 247.789062 442.277344 252.609375 440.101562 259.890625 440.101562 C 267.171875 440.101562 272.65625 443.882812 272.65625 443.882812 C 272.65625 443.882812 267.265625 446.054688 259.511719 446.054688 C 251.761719 446.058594 247.789062 442.277344 247.789062 442.277344 Z M 247.789062 442.277344 " fill-opacity="1" fill-rule="nonzero"/><path fill="#000000" d="M 256.703125 437.644531 C 256.703125 437.644531 257.09375 432.367188 260.566406 425.972656 C 264.042969 419.574219 269.984375 416.558594 269.984375 416.558594 C 269.984375 416.558594 269.320312 422.332031 265.621094 429.148438 C 261.917969 435.957031 256.703125 437.644531 256.703125 437.644531 Z M 256.703125 437.644531 " fill-opacity="1" fill-rule="nonzero"/><path fill="#000000" d="M 260.335938 436.984375 C 260.335938 436.984375 264.515625 433.742188 271.59375 432.035156 C 278.671875 430.332031 284.886719 432.722656 284.886719 432.722656 C 284.886719 432.722656 280.15625 436.101562 272.617188 437.917969 C 265.082031 439.730469 260.335938 436.984375 260.335938 436.984375 Z M 260.335938 436.984375 " fill-opacity="1" fill-rule="nonzero"/><path fill="#000000" d="M 266.601562 431.359375 C 266.601562 431.359375 269.203125 426.753906 275.074219 422.449219 C 280.941406 418.140625 287.597656 417.941406 287.597656 417.941406 C 287.597656 417.941406 284.539062 422.886719 278.292969 427.472656 C 272.039062 432.0625 266.601562 431.359375 266.601562 431.359375 Z M 266.601562 431.359375 " fill-opacity="1" fill-rule="nonzero"/><path fill="#000000" d="M 272.820312 421.886719 C 272.820312 421.886719 271.0625 417.171875 271.523438 410.261719 C 271.980469 403.351562 275.917969 398.382812 275.917969 398.382812 C 275.917969 398.382812 277.640625 403.636719 277.152344 411 C 276.660156 418.355469 272.820312 421.886719 272.820312 421.886719 Z M 272.820312 421.886719 " fill-opacity="1" fill-rule="nonzero"/><g clip-path="url(#cc17fc554e)"><path fill="#000000" d="M 277.761719 417.421875 C 277.761719 417.421875 279.570312 413.226562 284.214844 408.984375 C 288.859375 404.746094 294.5625 403.964844 294.5625 403.964844 C 294.5625 403.964844 292.390625 408.492188 287.441406 413.003906 C 282.496094 417.519531 277.761719 417.421875 277.761719 417.421875 Z M 277.761719 417.421875 " fill-opacity="1" fill-rule="nonzero"/></g><path fill="#000000" d="M 280.5625 408.121094 C 280.5625 408.121094 280.785156 403.554688 283.648438 397.957031 C 286.511719 392.355469 291.574219 389.621094 291.574219 389.621094 C 291.574219 389.621094 291.128906 394.625 288.078125 400.585938 C 285.03125 406.554688 280.5625 408.121094 280.5625 408.121094 Z M 280.5625 408.121094 " fill-opacity="1" fill-rule="nonzero"/><path fill="#000000" d="M 282.515625 394.5 C 282.515625 394.5 282.125 389.945312 284.207031 384.011719 C 286.292969 378.074219 290.941406 374.6875 290.941406 374.6875 C 290.941406 374.6875 291.171875 379.703125 288.953125 386.023438 C 286.734375 392.34375 282.515625 394.5 282.515625 394.5 Z M 282.515625 394.5 " fill-opacity="1" fill-rule="nonzero"/><path fill="#000000" d="M 280.628906 385.523438 C 280.628906 385.523438 278.539062 381.460938 278.21875 375.175781 C 277.894531 368.894531 280.914062 363.996094 280.914062 363.996094 C 280.914062 363.996094 283.03125 368.550781 283.375 375.238281 C 283.71875 381.929688 280.628906 385.523438 280.628906 385.523438 Z M 280.628906 385.523438 " fill-opacity="1" fill-rule="nonzero"/><path fill="#000000" d="M 275.480469 374.722656 C 275.480469 374.722656 272.757812 371.050781 271.417969 364.90625 C 270.078125 358.761719 272.261719 353.4375 272.261719 353.4375 C 272.261719 353.4375 275.089844 357.585938 276.515625 364.128906 C 277.941406 370.675781 275.480469 374.722656 275.480469 374.722656 Z M 275.480469 374.722656 " fill-opacity="1" fill-rule="nonzero"/><path fill="#000000" d="M 280.324219 402.261719 C 280.324219 402.261719 276.917969 399.214844 274.375 393.460938 C 271.832031 387.707031 272.902344 382.054688 272.902344 382.054688 C 272.902344 382.054688 276.503906 385.550781 279.214844 391.675781 C 281.925781 397.804688 280.324219 402.261719 280.324219 402.261719 Z M 280.324219 402.261719 " fill-opacity="1" fill-rule="nonzero"/><path fill="#000000" d="M 276.5625 381.699219 C 276.5625 381.699219 272.210938 380.300781 267.546875 376.082031 C 262.878906 371.863281 261.558594 366.265625 261.558594 366.265625 C 261.558594 366.265625 266.269531 367.992188 271.238281 372.484375 C 276.207031 376.976562 276.5625 381.699219 276.5625 381.699219 Z M 276.5625 381.699219 " fill-opacity="1" fill-rule="nonzero"/><g clip-path="url(#62de49cc39)"><path fill="#000000" d="M 270.132812 369.117188 C 270.132812 369.117188 266.015625 367.128906 261.976562 362.3125 C 257.9375 357.492188 257.398438 351.761719 257.398438 351.761719 C 257.398438 351.761719 261.828125 354.121094 266.132812 359.253906 C 270.433594 364.386719 270.132812 369.117188 270.132812 369.117188 Z M 270.132812 369.117188 " fill-opacity="1" fill-rule="nonzero"/></g><path fill="#000000" d="M 235.921875 448.691406 C 235.921875 455.019531 246.332031 461.90625 246.332031 458.542969 C 246.332031 455.179688 235.921875 450.9375 235.921875 448.691406 Z M 235.921875 448.691406 " fill-opacity="1" fill-rule="nonzero"/><g clip-path="url(#7aac6635de)"><path fill="#000000" d="M 271.121094 333.246094 L 188.050781 312.367188 C 185.265625 311.667969 182.359375 311.667969 179.628906 312.367188 L 96.503906 333.246094 C 95.050781 333.59375 95.050781 335.695312 96.503906 336.042969 L 137.339844 346.308594 C 160.460938 339.425781 185.320312 339.078125 208.964844 343.277344 C 185.03125 340.59375 159.820312 342.695312 137.339844 351.382812 L 137.339844 363.105469 C 137.339844 364.097656 138.269531 364.738281 139.199219 364.449219 C 152.441406 360.363281 167.664062 357.972656 183.8125 357.972656 C 199.960938 357.972656 215.179688 360.363281 228.480469 364.449219 C 229.414062 364.738281 230.285156 364.097656 230.285156 363.105469 L 230.285156 346.308594 L 248.117188 341.820312 L 248.117188 373.195312 L 247.828125 373.195312 C 247.1875 373.195312 246.664062 373.722656 246.664062 374.363281 L 246.664062 380.136719 C 246.664062 380.777344 247.1875 381.300781 247.828125 381.300781 L 251.3125 381.300781 C 251.949219 381.300781 252.472656 380.777344 252.472656 380.136719 L 252.472656 374.363281 C 252.472656 373.722656 251.949219 373.195312 251.3125 373.195312 L 251.019531 373.195312 L 251.019531 341.117188 L 271.121094 336.046875 C 272.628906 335.695312 272.628906 333.597656 271.121094 333.246094 Z M 271.121094 333.246094 " fill-opacity="1" fill-rule="nonzero"/></g><path fill="#5c3410" d="M 125.632812 420.15625 L 172.636719 420.714844 C 176.050781 420.753906 179.726562 420.726562 182.085938 423.335938 C 183.675781 425.089844 184.621094 428.023438 184.566406 432.890625 C 184.566406 433.335938 184.925781 433.699219 185.371094 433.699219 C 185.816406 433.699219 186.179688 433.335938 186.179688 432.890625 C 186.113281 427.503906 184.886719 424.3125 183.085938 422.410156 C 180.414062 419.59375 176.398438 419.558594 172.636719 419.601562 Z M 125.632812 420.15625 " fill-opacity="1" fill-rule="evenodd"/><path fill="#5c3410" d="M 134.75 416.917969 L 174.628906 417.472656 C 177.496094 417.515625 180.589844 417.484375 182.570312 419.683594 C 183.902344 421.160156 184.683594 423.628906 184.628906 427.722656 C 184.628906 428.164062 184.988281 428.527344 185.433594 428.527344 C 185.878906 428.527344 186.242188 428.164062 186.242188 427.722656 C 186.175781 423.109375 185.117188 420.382812 183.570312 418.757812 C 181.277344 416.351562 177.847656 416.316406 174.628906 416.363281 Z M 134.75 416.917969 " fill-opacity="1" fill-rule="evenodd"/><g clip-path="url(#cdc17ffee7)"><path fill="#5c3410" d="M 142.480469 413.148438 L 176.3125 413.703125 C 178.714844 413.742188 181.3125 413.71875 182.972656 415.566406 C 184.085938 416.808594 184.726562 418.882812 184.667969 422.3125 C 184.667969 422.757812 185.03125 423.121094 185.476562 423.121094 C 185.921875 423.121094 186.28125 422.757812 186.28125 422.3125 C 186.21875 418.363281 185.300781 416.027344 183.96875 414.640625 C 182 412.585938 179.070312 412.546875 176.3125 412.59375 Z M 142.480469 413.148438 " fill-opacity="1" fill-rule="evenodd"/></g><path fill="#5c3410" d="M 244.957031 420.15625 L 197.953125 419.601562 C 194.191406 419.558594 190.179688 419.59375 187.503906 422.410156 C 185.703125 424.3125 184.476562 427.503906 184.410156 432.890625 C 184.410156 433.335938 184.773438 433.699219 185.21875 433.699219 C 185.664062 433.699219 186.023438 433.335938 186.023438 432.890625 C 185.96875 428.023438 186.914062 425.089844 188.503906 423.335938 C 190.867188 420.726562 194.542969 420.753906 197.953125 420.714844 Z M 244.957031 420.15625 " fill-opacity="1" fill-rule="evenodd"/><path fill="#5c3410" d="M 235.980469 416.917969 L 196.101562 416.363281 C 192.882812 416.316406 189.453125 416.351562 187.164062 418.757812 C 185.613281 420.382812 184.554688 423.109375 184.488281 427.722656 C 184.488281 428.164062 184.851562 428.527344 185.296875 428.527344 C 185.742188 428.527344 186.101562 428.164062 186.101562 427.722656 C 186.046875 423.628906 186.828125 421.160156 188.160156 419.683594 C 190.140625 417.484375 193.234375 417.515625 196.101562 417.472656 Z M 235.980469 416.917969 " fill-opacity="1" fill-rule="evenodd"/><g clip-path="url(#c1f553a16b)"><path fill="#5c3410" d="M 228.386719 413.148438 L 194.554688 412.59375 C 191.796875 412.546875 188.863281 412.585938 186.894531 414.640625 C 185.566406 416.027344 184.644531 418.363281 184.582031 422.3125 C 184.582031 422.757812 184.945312 423.121094 185.390625 423.121094 C 185.832031 423.121094 186.195312 422.757812 186.195312 422.3125 C 186.140625 418.882812 186.78125 416.808594 187.894531 415.566406 C 189.550781 413.71875 192.148438 413.742188 194.554688 413.703125 Z M 228.386719 413.148438 " fill-opacity="1" fill-rule="evenodd"/></g><g clip-path="url(#0fa1189795)"><path fill="#000000" d="M 118.449219 422.316406 L 171.039062 423.777344 C 174.601562 423.851562 178.457031 423.777344 180.910156 426.515625 C 182.304688 428.066406 182.488281 430.613281 183.386719 434.308594 C 183.464844 434.636719 183.597656 434.894531 183.785156 435.191406 C 183.992188 435.523438 184.109375 435.585938 184.40625 435.863281 C 184.828125 436.265625 184.816406 436.179688 185.285156 436.5625 C 185.757812 436.179688 185.742188 436.253906 186.15625 435.832031 C 186.449219 435.53125 186.542969 435.4375 186.730469 435.078125 C 186.910156 434.738281 186.992188 434.425781 187.03125 434.058594 C 187.527344 429.199219 185.273438 426.128906 183.421875 424.191406 C 182.039062 422.742188 180.386719 421.875 178.574219 421.394531 C 176.207031 420.765625 173.570312 420.800781 171.039062 420.855469 Z M 118.449219 422.316406 " fill-opacity="1" fill-rule="evenodd"/></g><g clip-path="url(#2d9bab9bca)"><path fill="#000000" d="M 251.964844 422.316406 L 199.375 420.855469 C 196.84375 420.800781 194.203125 420.765625 191.835938 421.394531 C 190.023438 421.875 188.371094 422.742188 186.992188 424.191406 C 185.140625 426.128906 182.882812 429.199219 183.382812 434.058594 C 183.417969 434.425781 183.5 434.738281 183.679688 435.078125 C 183.871094 435.4375 183.964844 435.53125 184.257812 435.832031 C 184.667969 436.253906 184.65625 436.179688 185.125 436.5625 C 185.59375 436.179688 185.585938 436.265625 186.007812 435.863281 C 186.300781 435.585938 186.417969 435.523438 186.628906 435.191406 C 186.816406 434.894531 186.945312 434.636719 187.023438 434.308594 C 187.925781 430.613281 188.105469 428.066406 189.5 426.515625 C 191.957031 423.777344 195.808594 423.851562 199.375 423.777344 Z M 251.964844 422.316406 " fill-opacity="1" fill-rule="evenodd"/></g><g mask="url(#a7d1736b75)"><g transform="matrix(1, 0, 0, 1, 134, 441)"><g clip-path="url(#6aa6ddc913)"><g clip-path="url(#83d7af1fc1)"><path fill="#000000" d="M 103.652344 15.058594 L 103.398438 15.328125 C 102.605469 14.570312 101.710938 13.910156 100.757812 13.351562 C 99.804688 12.792969 98.800781 12.320312 97.769531 11.910156 C 95.710938 11.105469 93.578125 10.476562 91.398438 10.03125 C 89.222656 9.589844 87.003906 9.316406 84.773438 9.253906 C 82.542969 9.183594 80.300781 9.300781 78.082031 9.601562 C 76.96875 9.746094 75.867188 9.957031 74.769531 10.199219 C 74.496094 10.25 74.226562 10.328125 73.953125 10.394531 L 73.136719 10.601562 C 72.597656 10.75 72.058594 10.90625 71.527344 11.070312 C 69.394531 11.734375 67.324219 12.507812 65.257812 13.195312 C 63.195312 13.886719 61.125 14.5 59.050781 14.824219 C 58.011719 14.980469 56.976562 15.070312 55.949219 15.054688 C 54.925781 15.039062 53.914062 14.929688 52.929688 14.703125 C 50.949219 14.257812 49.050781 13.394531 47.214844 12.351562 C 45.371094 11.308594 43.578125 10.089844 41.710938 8.894531 C 39.84375 7.699219 37.890625 6.5 35.703125 5.578125 C 34.609375 5.117188 33.457031 4.730469 32.253906 4.472656 L 31.804688 4.378906 C 31.652344 4.34375 31.496094 4.328125 31.34375 4.300781 L 30.886719 4.230469 C 30.734375 4.207031 30.578125 4.199219 30.421875 4.179688 L 29.957031 4.136719 C 29.800781 4.125 29.644531 4.121094 29.488281 4.117188 C 29.179688 4.109375 28.863281 4.085938 28.554688 4.105469 C 27.308594 4.121094 26.082031 4.285156 24.902344 4.539062 C 23.722656 4.796875 22.585938 5.144531 21.488281 5.535156 C 19.292969 6.320312 17.242188 7.28125 15.261719 8.175781 C 13.300781 9.058594 11.363281 9.847656 9.433594 10.367188 C 7.507812 10.875 5.605469 11.089844 3.871094 10.824219 C 4.070312 10.03125 4.242188 9.246094 4.394531 8.441406 C 4.546875 7.640625 4.675781 6.835938 4.777344 6.03125 C 4.824219 6.042969 4.875 6.054688 4.921875 6.066406 L 4.960938 6.074219 L 5 6.078125 L 5.082031 6.085938 C 5.191406 6.09375 5.292969 6.117188 5.410156 6.125 C 5.527344 6.128906 5.648438 6.132812 5.769531 6.140625 C 5.828125 6.148438 5.894531 6.140625 5.960938 6.140625 L 6.15625 6.136719 C 6.222656 6.136719 6.285156 6.140625 6.355469 6.132812 L 6.566406 6.117188 C 6.710938 6.101562 6.847656 6.101562 7.003906 6.074219 L 7.457031 6.015625 L 7.9375 5.929688 C 8.65625 5.792969 9.429688 5.597656 10.238281 5.347656 C 11.050781 5.101562 11.902344 4.789062 12.785156 4.453125 L 13.117188 4.324219 L 13.464844 4.1875 L 14.179688 3.902344 L 15.660156 3.304688 C 16.675781 2.902344 17.738281 2.492188 18.863281 2.101562 C 19.148438 2.003906 19.425781 1.90625 19.71875 1.8125 L 20.597656 1.535156 L 21.507812 1.273438 C 21.660156 1.230469 21.816406 1.191406 21.972656 1.152344 L 22.445312 1.035156 C 23.710938 0.730469 25.050781 0.492188 26.457031 0.375 C 27.855469 0.253906 29.34375 0.289062 30.78125 0.472656 C 32.226562 0.660156 33.609375 1.007812 34.886719 1.453125 C 36.167969 1.898438 37.351562 2.4375 38.441406 3.015625 C 39.535156 3.59375 40.542969 4.207031 41.492188 4.824219 C 43.386719 6.066406 45.054688 7.316406 46.65625 8.433594 C 48.253906 9.554688 49.78125 10.539062 51.289062 11.257812 C 52.039062 11.617188 52.785156 11.910156 53.53125 12.125 C 54.269531 12.335938 55.035156 12.472656 55.839844 12.535156 C 56.644531 12.605469 57.488281 12.589844 58.363281 12.515625 C 59.234375 12.441406 60.136719 12.300781 61.058594 12.113281 C 62.902344 11.734375 64.820312 11.167969 66.800781 10.570312 C 68.785156 9.976562 70.832031 9.339844 72.996094 8.871094 C 75.15625 8.394531 77.34375 8.101562 79.527344 7.980469 C 83.890625 7.742188 88.246094 8.199219 92.378906 9.308594 C 92.894531 9.449219 93.40625 9.605469 93.917969 9.757812 C 94.425781 9.921875 94.929688 10.09375 95.433594 10.265625 C 95.929688 10.453125 96.429688 10.640625 96.921875 10.832031 C 97.414062 11.03125 97.902344 11.246094 98.386719 11.46875 C 98.871094 11.691406 99.347656 11.933594 99.816406 12.191406 C 100.285156 12.449219 100.746094 12.722656 101.191406 13.019531 C 101.636719 13.316406 102.074219 13.632812 102.484375 13.972656 C 102.898438 14.3125 103.289062 14.675781 103.660156 15.058594 Z M 103.652344 15.058594 " fill-opacity="1" fill-rule="nonzero"/></g><g clip-path="url(#b263069aa2)"><path fill="#df0000" d="M 103.398438 15.328125 L 102.964844 15.785156 C 102.179688 15.089844 101.296875 14.496094 100.359375 14 C 99.417969 13.5 98.429688 13.082031 97.410156 12.722656 C 95.359375 12.019531 93.242188 11.492188 91.097656 11.148438 L 90.699219 11.082031 L 90.292969 11.027344 L 89.488281 10.921875 C 89.21875 10.882812 88.949219 10.867188 88.679688 10.839844 L 87.867188 10.765625 C 87.597656 10.75 87.328125 10.738281 87.054688 10.722656 C 86.785156 10.710938 86.515625 10.6875 86.246094 10.683594 L 85.433594 10.671875 C 85.160156 10.667969 84.890625 10.660156 84.621094 10.671875 C 82.453125 10.695312 80.296875 10.90625 78.171875 11.289062 L 77.773438 11.359375 L 77.378906 11.445312 L 76.589844 11.613281 L 76.390625 11.65625 L 76.195312 11.707031 L 75.804688 11.804688 L 75.023438 12.003906 C 74.507812 12.15625 73.992188 12.304688 73.476562 12.464844 C 72.964844 12.628906 72.453125 12.804688 71.941406 12.988281 C 69.898438 13.722656 67.863281 14.578125 65.757812 15.371094 C 63.65625 16.15625 61.472656 16.894531 59.152344 17.316406 C 58.574219 17.425781 57.984375 17.503906 57.390625 17.566406 C 57.09375 17.589844 56.796875 17.621094 56.496094 17.632812 C 56.347656 17.640625 56.195312 17.652344 56.046875 17.65625 L 55.59375 17.664062 C 54.386719 17.675781 53.160156 17.546875 51.972656 17.300781 C 50.78125 17.054688 49.632812 16.691406 48.535156 16.257812 C 47.433594 15.820312 46.382812 15.316406 45.367188 14.78125 C 43.335938 13.710938 41.441406 12.519531 39.5625 11.429688 C 37.691406 10.34375 35.820312 9.347656 33.921875 8.683594 C 32.972656 8.355469 32.019531 8.109375 31.0625 7.980469 C 30.824219 7.957031 30.585938 7.921875 30.351562 7.902344 C 30.113281 7.890625 29.875 7.871094 29.636719 7.867188 L 28.921875 7.871094 L 28.207031 7.921875 C 26.289062 8.105469 24.359375 8.71875 22.4375 9.527344 C 21.472656 9.933594 20.511719 10.390625 19.539062 10.867188 L 16.570312 12.351562 C 15.546875 12.851562 14.496094 13.339844 13.410156 13.789062 C 12.324219 14.238281 11.191406 14.640625 10.007812 14.96875 C 8.828125 15.292969 7.589844 15.539062 6.308594 15.652344 C 5.023438 15.761719 3.691406 15.730469 2.363281 15.503906 C 2.515625 15.121094 2.660156 14.742188 2.796875 14.351562 C 2.933594 13.964844 3.066406 13.574219 3.191406 13.183594 C 3.441406 12.398438 3.667969 11.613281 3.867188 10.824219 C 5.601562 11.085938 7.507812 10.875 9.429688 10.367188 C 11.359375 9.847656 13.296875 9.058594 15.257812 8.175781 C 17.238281 7.28125 19.289062 6.320312 21.484375 5.535156 C 22.582031 5.140625 23.71875 4.796875 24.898438 4.535156 C 26.082031 4.28125 27.308594 4.121094 28.550781 4.101562 C 28.859375 4.085938 29.175781 4.105469 29.488281 4.117188 C 29.644531 4.121094 29.796875 4.121094 29.953125 4.136719 L 30.417969 4.179688 C 30.574219 4.195312 30.730469 4.207031 30.882812 4.230469 L 31.34375 4.300781 C 31.496094 4.324219 31.648438 4.34375 31.800781 4.378906 L 32.25 4.472656 C 33.453125 4.730469 34.605469 5.117188 35.699219 5.578125 C 37.886719 6.5 39.839844 7.695312 41.707031 8.890625 C 43.574219 10.089844 45.367188 11.308594 47.210938 12.351562 C 49.046875 13.390625 50.945312 14.257812 52.925781 14.703125 C 53.910156 14.929688 54.921875 15.039062 55.949219 15.054688 C 56.972656 15.070312 58.011719 14.980469 59.046875 14.824219 C 61.125 14.5 63.191406 13.886719 65.253906 13.195312 C 67.324219 12.507812 69.390625 11.730469 71.523438 11.070312 C 72.054688 10.902344 72.59375 10.75 73.132812 10.601562 L 73.949219 10.394531 C 74.222656 10.328125 74.492188 10.25 74.769531 10.195312 C 75.863281 9.957031 76.964844 9.746094 78.078125 9.601562 C 80.296875 9.296875 82.535156 9.183594 84.769531 9.25 C 87 9.316406 89.21875 9.589844 91.398438 10.03125 C 93.574219 10.476562 95.707031 11.101562 97.769531 11.910156 C 98.796875 12.320312 99.800781 12.789062 100.753906 13.351562 C 101.707031 13.910156 102.601562 14.570312 103.394531 15.328125 Z M 103.398438 15.328125 " fill-opacity="1" fill-rule="nonzero"/></g><g clip-path="url(#cc6c5e4a08)"><path fill="#fece00" d="M 102.964844 15.785156 L 102.710938 16.050781 C 101.195312 14.835938 99.375 14.019531 97.460938 13.417969 C 96.980469 13.265625 96.496094 13.128906 96.003906 13 L 95.261719 12.824219 L 94.890625 12.734375 C 94.769531 12.703125 94.644531 12.671875 94.519531 12.648438 L 93.773438 12.5 C 93.527344 12.449219 93.28125 12.394531 93.027344 12.359375 L 92.277344 12.238281 L 91.902344 12.179688 L 91.527344 12.132812 C 87.515625 11.609375 83.453125 11.75 79.570312 12.507812 C 79.449219 12.53125 79.324219 12.554688 79.207031 12.582031 L 78.84375 12.664062 L 78.121094 12.824219 C 77.640625 12.945312 77.164062 13.070312 76.691406 13.195312 C 76.222656 13.34375 75.75 13.476562 75.285156 13.628906 L 74.59375 13.871094 C 74.359375 13.949219 74.128906 14.027344 73.898438 14.117188 C 72.054688 14.808594 70.191406 15.664062 68.238281 16.527344 C 66.28125 17.386719 64.226562 18.269531 61.96875 18.972656 C 60.835938 19.320312 59.652344 19.617188 58.414062 19.832031 C 57.171875 20.035156 55.871094 20.15625 54.542969 20.140625 C 53.21875 20.121094 51.855469 19.957031 50.570312 19.683594 C 49.28125 19.40625 48.050781 19.019531 46.894531 18.578125 C 44.570312 17.691406 42.515625 16.605469 40.609375 15.585938 C 38.707031 14.558594 36.9375 13.585938 35.277344 12.859375 C 34.449219 12.496094 33.652344 12.191406 32.894531 11.96875 C 32.136719 11.746094 31.425781 11.605469 30.757812 11.542969 C 30.085938 11.480469 29.476562 11.503906 28.847656 11.582031 C 28.21875 11.664062 27.5625 11.816406 26.855469 12.046875 C 26.15625 12.273438 25.417969 12.570312 24.640625 12.921875 C 23.867188 13.273438 23.0625 13.6875 22.214844 14.144531 C 21.371094 14.597656 20.488281 15.089844 19.558594 15.609375 L 18.851562 16 L 18.09375 16.410156 C 17.578125 16.679688 17.058594 16.953125 16.515625 17.21875 C 15.429688 17.753906 14.285156 18.269531 13.050781 18.742188 C 11.820312 19.214844 10.484375 19.632812 9.042969 19.949219 L 8.554688 20.054688 C 8.386719 20.085938 8.214844 20.113281 8.042969 20.140625 L 7.53125 20.222656 L 7.277344 20.265625 C 7.191406 20.277344 7.101562 20.285156 7.011719 20.292969 C 6.65625 20.332031 6.300781 20.371094 5.945312 20.402344 C 5.582031 20.425781 5.210938 20.4375 4.84375 20.449219 C 3.355469 20.480469 1.800781 20.34375 0.25 20.015625 C 1.058594 18.539062 1.765625 17.03125 2.367188 15.503906 C 3.691406 15.730469 5.027344 15.761719 6.308594 15.648438 C 7.59375 15.539062 8.828125 15.292969 10.011719 14.964844 C 11.195312 14.640625 12.324219 14.234375 13.410156 13.785156 C 14.5 13.339844 15.546875 12.851562 16.570312 12.347656 L 19.539062 10.867188 C 20.515625 10.386719 21.476562 9.933594 22.4375 9.527344 C 24.359375 8.714844 26.292969 8.101562 28.207031 7.917969 L 28.925781 7.867188 L 29.636719 7.863281 C 29.875 7.867188 30.113281 7.890625 30.351562 7.898438 C 30.589844 7.921875 30.828125 7.953125 31.066406 7.976562 C 32.019531 8.105469 32.976562 8.355469 33.921875 8.683594 C 35.824219 9.34375 37.691406 10.339844 39.566406 11.429688 C 41.445312 12.519531 43.335938 13.707031 45.367188 14.78125 C 46.382812 15.3125 47.4375 15.820312 48.535156 16.253906 C 49.636719 16.6875 50.785156 17.050781 51.972656 17.296875 C 53.160156 17.542969 54.386719 17.671875 55.59375 17.660156 L 56.046875 17.652344 C 56.199219 17.648438 56.347656 17.636719 56.5 17.632812 C 56.800781 17.621094 57.097656 17.589844 57.394531 17.566406 C 57.988281 17.5 58.578125 17.421875 59.15625 17.316406 C 61.476562 16.894531 63.65625 16.15625 65.761719 15.367188 C 67.863281 14.574219 69.898438 13.722656 71.945312 12.984375 C 72.457031 12.804688 72.96875 12.625 73.480469 12.460938 C 73.992188 12.300781 74.507812 12.15625 75.023438 12 L 75.808594 11.800781 L 76.199219 11.703125 L 76.394531 11.652344 L 76.589844 11.609375 L 77.382812 11.441406 L 77.777344 11.359375 L 78.175781 11.289062 C 80.296875 10.902344 82.457031 10.695312 84.621094 10.667969 C 84.890625 10.65625 85.164062 10.664062 85.433594 10.667969 L 86.246094 10.683594 C 86.515625 10.6875 86.789062 10.707031 87.058594 10.71875 C 87.328125 10.734375 87.601562 10.746094 87.871094 10.765625 L 88.679688 10.839844 C 88.949219 10.867188 89.222656 10.882812 89.488281 10.921875 L 90.296875 11.023438 L 90.699219 11.078125 L 91.101562 11.144531 C 93.242188 11.488281 95.363281 12.019531 97.410156 12.722656 C 98.429688 13.078125 99.421875 13.496094 100.363281 13.996094 C 101.300781 14.496094 102.179688 15.089844 102.96875 15.78125 Z M 102.964844 15.785156 " fill-opacity="1" fill-rule="nonzero"/></g></g></g></g><g fill="#000000" fill-opacity="1"><g transform="translate(312.402338, 395.209604)"><g><path d="M 13 0 L 5.875 -8.734375 L 5.875 0 L 1.9375 0 L 1.9375 -19.59375 L 5.875 -19.59375 L 5.875 -10.8125 L 13 -19.59375 L 17.75 -19.59375 L 9.65625 -9.890625 L 17.96875 0 Z M 13 0 "/></g></g></g><g fill="#000000" fill-opacity="1"><g transform="translate(329.360587, 395.209604)"><g><path d="M 5.875 -19.59375 L 5.875 0 L 1.9375 0 L 1.9375 -19.59375 Z M 5.875 -19.59375 "/></g></g></g><g fill="#000000" fill-opacity="1"><g transform="translate(335.508985, 395.209604)"><g><path d="M 15.578125 -13.703125 C 15.128906 -14.523438 14.507812 -15.148438 13.71875 -15.578125 C 12.9375 -16.015625 12.023438 -16.234375 10.984375 -16.234375 C 9.816406 -16.234375 8.785156 -15.96875 7.890625 -15.4375 C 6.992188 -14.914062 6.289062 -14.164062 5.78125 -13.1875 C 5.28125 -12.21875 5.03125 -11.097656 5.03125 -9.828125 C 5.03125 -8.515625 5.285156 -7.367188 5.796875 -6.390625 C 6.304688 -5.421875 7.019531 -4.675781 7.9375 -4.15625 C 8.863281 -3.632812 9.929688 -3.375 11.140625 -3.375 C 12.640625 -3.375 13.863281 -3.769531 14.8125 -4.5625 C 15.769531 -5.351562 16.398438 -6.460938 16.703125 -7.890625 L 9.96875 -7.890625 L 9.96875 -10.890625 L 20.578125 -10.890625 L 20.578125 -7.46875 C 20.316406 -6.101562 19.753906 -4.835938 18.890625 -3.671875 C 18.035156 -2.515625 16.925781 -1.582031 15.5625 -0.875 C 14.207031 -0.175781 12.6875 0.171875 11 0.171875 C 9.113281 0.171875 7.40625 -0.253906 5.875 -1.109375 C 4.351562 -1.960938 3.15625 -3.144531 2.28125 -4.65625 C 1.414062 -6.175781 0.984375 -7.898438 0.984375 -9.828125 C 0.984375 -11.753906 1.414062 -13.476562 2.28125 -15 C 3.15625 -16.53125 4.351562 -17.71875 5.875 -18.5625 C 7.40625 -19.414062 9.109375 -19.84375 10.984375 -19.84375 C 13.191406 -19.84375 15.109375 -19.304688 16.734375 -18.234375 C 18.359375 -17.160156 19.484375 -15.648438 20.109375 -13.703125 Z M 15.578125 -13.703125 "/></g></g></g><g fill="#000000" fill-opacity="1"><g transform="translate(355.415377, 395.209604)"><g><path d="M 13.953125 -3.734375 L 6.15625 -3.734375 L 4.859375 0 L 0.734375 0 L 7.78125 -19.625 L 12.359375 -19.625 L 19.40625 0 L 15.25 0 Z M 12.890625 -6.875 L 10.046875 -15.078125 L 7.21875 -6.875 Z M 12.890625 -6.875 "/></g></g></g><g fill="#000000" fill-opacity="1"><g transform="translate(373.86174, 395.209604)"><g><path d="M 5.875 -3.109375 L 12.328125 -3.109375 L 12.328125 0 L 1.9375 0 L 1.9375 -19.59375 L 5.875 -19.59375 Z M 5.875 -3.109375 "/></g></g></g><g fill="#000000" fill-opacity="1"><g transform="translate(385.092169, 395.209604)"><g><path d="M 5.875 -19.59375 L 5.875 0 L 1.9375 0 L 1.9375 -19.59375 Z M 5.875 -19.59375 "/></g></g></g><g fill="#000000" fill-opacity="1"><g transform="translate(391.24057, 395.209604)"><g/></g></g><g fill="#000000" fill-opacity="1"><g transform="translate(396.265861, 395.209604)"><g><path d="M 8.78125 -19.59375 C 10.84375 -19.59375 12.65625 -19.191406 14.21875 -18.390625 C 15.78125 -17.585938 16.988281 -16.441406 17.84375 -14.953125 C 18.695312 -13.460938 19.125 -11.734375 19.125 -9.765625 C 19.125 -7.804688 18.695312 -6.09375 17.84375 -4.625 C 16.988281 -3.15625 15.78125 -2.015625 14.21875 -1.203125 C 12.65625 -0.398438 10.84375 0 8.78125 0 L 1.9375 0 L 1.9375 -19.59375 Z M 8.640625 -3.34375 C 10.703125 -3.34375 12.296875 -3.898438 13.421875 -5.015625 C 14.546875 -6.140625 15.109375 -7.722656 15.109375 -9.765625 C 15.109375 -11.804688 14.546875 -13.398438 13.421875 -14.546875 C 12.296875 -15.703125 10.703125 -16.28125 8.640625 -16.28125 L 5.875 -16.28125 L 5.875 -3.34375 Z M 8.640625 -3.34375 "/></g></g></g><g fill="#000000" fill-opacity="1"><g transform="translate(414.740292, 395.209604)"><g><path d="M 5.875 -16.421875 L 5.875 -11.515625 L 12.46875 -11.515625 L 12.46875 -8.390625 L 5.875 -8.390625 L 5.875 -3.203125 L 13.3125 -3.203125 L 13.3125 0 L 1.9375 0 L 1.9375 -19.625 L 13.3125 -19.625 L 13.3125 -16.421875 Z M 5.875 -16.421875 "/></g></g></g><g fill="#000000" fill-opacity="1"><g transform="translate(428.020389, 395.209604)"><g><path d="M 5.8125 -19.59375 L 5.8125 -7.46875 C 5.8125 -6.132812 6.15625 -5.117188 6.84375 -4.421875 C 7.539062 -3.722656 8.515625 -3.375 9.765625 -3.375 C 11.046875 -3.375 12.03125 -3.722656 12.71875 -4.421875 C 13.414062 -5.117188 13.765625 -6.132812 13.765625 -7.46875 L 13.765625 -19.59375 L 17.71875 -19.59375 L 17.71875 -7.5 C 17.71875 -5.832031 17.359375 -4.421875 16.640625 -3.265625 C 15.921875 -2.117188 14.957031 -1.253906 13.75 -0.671875 C 12.539062 -0.0859375 11.195312 0.203125 9.71875 0.203125 C 8.257812 0.203125 6.929688 -0.0859375 5.734375 -0.671875 C 4.546875 -1.253906 3.601562 -2.117188 2.90625 -3.265625 C 2.21875 -4.421875 1.875 -5.832031 1.875 -7.5 L 1.875 -19.59375 Z M 5.8125 -19.59375 "/></g></g></g><g fill="#000000" fill-opacity="1"><g transform="translate(445.933281, 395.209604)"><g><path d="M 15.28125 -19.59375 L 15.28125 -16.421875 L 10.046875 -16.421875 L 10.046875 0 L 6.125 0 L 6.125 -16.421875 L 0.90625 -16.421875 L 0.90625 -19.59375 Z M 15.28125 -19.59375 "/></g></g></g><g fill="#000000" fill-opacity="1"><g transform="translate(460.476858, 395.209604)"><g><path d="M 8.703125 0.203125 C 7.335938 0.203125 6.109375 -0.03125 5.015625 -0.5 C 3.921875 -0.96875 3.050781 -1.640625 2.40625 -2.515625 C 1.769531 -3.398438 1.445312 -4.441406 1.4375 -5.640625 L 5.640625 -5.640625 C 5.703125 -4.835938 5.988281 -4.203125 6.5 -3.734375 C 7.007812 -3.265625 7.71875 -3.03125 8.625 -3.03125 C 9.539062 -3.03125 10.257812 -3.25 10.78125 -3.6875 C 11.300781 -4.132812 11.5625 -4.710938 11.5625 -5.421875 C 11.5625 -6.003906 11.382812 -6.476562 11.03125 -6.84375 C 10.675781 -7.21875 10.234375 -7.515625 9.703125 -7.734375 C 9.171875 -7.953125 8.4375 -8.191406 7.5 -8.453125 C 6.226562 -8.828125 5.191406 -9.195312 4.390625 -9.5625 C 3.597656 -9.925781 2.914062 -10.476562 2.34375 -11.21875 C 1.769531 -11.957031 1.484375 -12.941406 1.484375 -14.171875 C 1.484375 -15.335938 1.773438 -16.347656 2.359375 -17.203125 C 2.941406 -18.066406 3.753906 -18.726562 4.796875 -19.1875 C 5.847656 -19.644531 7.046875 -19.875 8.390625 -19.875 C 10.410156 -19.875 12.050781 -19.382812 13.3125 -18.40625 C 14.582031 -17.425781 15.285156 -16.054688 15.421875 -14.296875 L 11.09375 -14.296875 C 11.050781 -14.960938 10.765625 -15.515625 10.234375 -15.953125 C 9.703125 -16.398438 8.992188 -16.625 8.109375 -16.625 C 7.347656 -16.625 6.738281 -16.425781 6.28125 -16.03125 C 5.820312 -15.632812 5.59375 -15.0625 5.59375 -14.3125 C 5.59375 -13.789062 5.765625 -13.359375 6.109375 -13.015625 C 6.453125 -12.671875 6.878906 -12.390625 7.390625 -12.171875 C 7.910156 -11.953125 8.640625 -11.703125 9.578125 -11.421875 C 10.847656 -11.046875 11.882812 -10.671875 12.6875 -10.296875 C 13.5 -9.929688 14.191406 -9.375 14.765625 -8.625 C 15.347656 -7.875 15.640625 -6.890625 15.640625 -5.671875 C 15.640625 -4.617188 15.367188 -3.644531 14.828125 -2.75 C 14.285156 -1.851562 13.488281 -1.132812 12.4375 -0.59375 C 11.382812 -0.0625 10.140625 0.203125 8.703125 0.203125 Z M 8.703125 0.203125 "/></g></g></g><g fill="#000000" fill-opacity="1"><g transform="translate(475.918923, 395.209604)"><g><path d="M 0.984375 -9.828125 C 0.984375 -11.753906 1.414062 -13.476562 2.28125 -15 C 3.15625 -16.53125 4.34375 -17.71875 5.84375 -18.5625 C 7.351562 -19.414062 9.046875 -19.84375 10.921875 -19.84375 C 13.109375 -19.84375 15.023438 -19.28125 16.671875 -18.15625 C 18.328125 -17.039062 19.476562 -15.488281 20.125 -13.5 L 15.609375 -13.5 C 15.160156 -14.4375 14.53125 -15.140625 13.71875 -15.609375 C 12.90625 -16.078125 11.960938 -16.3125 10.890625 -16.3125 C 9.753906 -16.3125 8.738281 -16.046875 7.84375 -15.515625 C 6.957031 -14.984375 6.265625 -14.226562 5.765625 -13.25 C 5.273438 -12.28125 5.03125 -11.140625 5.03125 -9.828125 C 5.03125 -8.535156 5.273438 -7.394531 5.765625 -6.40625 C 6.265625 -5.425781 6.957031 -4.671875 7.84375 -4.140625 C 8.738281 -3.609375 9.753906 -3.34375 10.890625 -3.34375 C 11.960938 -3.34375 12.90625 -3.578125 13.71875 -4.046875 C 14.53125 -4.523438 15.160156 -5.234375 15.609375 -6.171875 L 20.125 -6.171875 C 19.476562 -4.171875 18.332031 -2.613281 16.6875 -1.5 C 15.050781 -0.382812 13.128906 0.171875 10.921875 0.171875 C 9.046875 0.171875 7.351562 -0.253906 5.84375 -1.109375 C 4.34375 -1.960938 3.15625 -3.144531 2.28125 -4.65625 C 1.414062 -6.175781 0.984375 -7.898438 0.984375 -9.828125 Z M 0.984375 -9.828125 "/></g></g></g><g fill="#000000" fill-opacity="1"><g transform="translate(495.825316, 395.209604)"><g><path d="M 18.1875 -19.59375 L 18.1875 0 L 14.265625 0 L 14.265625 -8.34375 L 5.875 -8.34375 L 5.875 0 L 1.9375 0 L 1.9375 -19.59375 L 5.875 -19.59375 L 5.875 -11.546875 L 14.265625 -11.546875 L 14.265625 -19.59375 Z M 18.1875 -19.59375 "/></g></g></g><g fill="#000000" fill-opacity="1"><g transform="translate(350.578046, 413.793718)"><g><path d="M 0.125 0 L 3.859375 -9.421875 L 5.953125 -9.421875 L 9.703125 0 L 7.40625 0 L 6.78125 -1.625 L 3.046875 -1.625 L 2.40625 0 Z M 3.59375 -3.3125 L 6.25 -3.3125 L 4.90625 -6.75 Z M 3.59375 -3.3125 "/></g></g></g><g fill="#000000" fill-opacity="1"><g transform="translate(367.968096, 413.793718)"><g><path d="M 5.453125 0.1875 C 4.492188 0.1875 3.644531 -0.0195312 2.90625 -0.4375 C 2.175781 -0.851562 1.601562 -1.425781 1.1875 -2.15625 C 0.78125 -2.894531 0.578125 -3.742188 0.578125 -4.703125 C 0.578125 -5.660156 0.78125 -6.507812 1.1875 -7.25 C 1.601562 -7.988281 2.175781 -8.566406 2.90625 -8.984375 C 3.644531 -9.398438 4.488281 -9.609375 5.4375 -9.609375 C 6.226562 -9.609375 6.957031 -9.453125 7.625 -9.140625 C 8.289062 -8.835938 8.847656 -8.40625 9.296875 -7.84375 C 9.753906 -7.289062 10.070312 -6.640625 10.25 -5.890625 L 8.046875 -5.890625 C 7.867188 -6.410156 7.550781 -6.820312 7.09375 -7.125 C 6.632812 -7.425781 6.101562 -7.578125 5.5 -7.578125 C 4.96875 -7.578125 4.492188 -7.453125 4.078125 -7.203125 C 3.660156 -6.960938 3.335938 -6.628906 3.109375 -6.203125 C 2.878906 -5.773438 2.765625 -5.273438 2.765625 -4.703125 C 2.765625 -4.140625 2.878906 -3.640625 3.109375 -3.203125 C 3.335938 -2.773438 3.65625 -2.441406 4.0625 -2.203125 C 4.476562 -1.960938 4.953125 -1.84375 5.484375 -1.84375 C 6.109375 -1.84375 6.648438 -2 7.109375 -2.3125 C 7.578125 -2.632812 7.910156 -3.066406 8.109375 -3.609375 L 10.3125 -3.609375 C 10.164062 -2.847656 9.863281 -2.179688 9.40625 -1.609375 C 8.945312 -1.035156 8.378906 -0.59375 7.703125 -0.28125 C 7.023438 0.03125 6.273438 0.1875 5.453125 0.1875 Z M 5.453125 0.1875 "/></g></g></g><g fill="#000000" fill-opacity="1"><g transform="translate(386.393679, 413.793718)"><g><path d="M 0.125 0 L 3.859375 -9.421875 L 5.953125 -9.421875 L 9.703125 0 L 7.40625 0 L 6.78125 -1.625 L 3.046875 -1.625 L 2.40625 0 Z M 3.59375 -3.3125 L 6.25 -3.3125 L 4.90625 -6.75 Z M 3.59375 -3.3125 "/></g></g></g><g fill="#000000" fill-opacity="1"><g transform="translate(403.783731, 413.793718)"><g><path d="M 1.125 0 L 1.125 -9.421875 L 4.859375 -9.421875 C 5.847656 -9.421875 6.710938 -9.222656 7.453125 -8.828125 C 8.203125 -8.429688 8.785156 -7.878906 9.203125 -7.171875 C 9.617188 -6.460938 9.828125 -5.640625 9.828125 -4.703125 C 9.828125 -3.765625 9.617188 -2.941406 9.203125 -2.234375 C 8.785156 -1.535156 8.203125 -0.988281 7.453125 -0.59375 C 6.710938 -0.195312 5.847656 0 4.859375 0 Z M 3.265625 -1.96875 L 4.8125 -1.96875 C 5.375 -1.96875 5.863281 -2.082031 6.28125 -2.3125 C 6.707031 -2.539062 7.035156 -2.859375 7.265625 -3.265625 C 7.503906 -3.679688 7.625 -4.160156 7.625 -4.703125 C 7.625 -5.265625 7.503906 -5.75 7.265625 -6.15625 C 7.035156 -6.5625 6.707031 -6.878906 6.28125 -7.109375 C 5.851562 -7.335938 5.359375 -7.453125 4.796875 -7.453125 L 3.265625 -7.453125 Z M 3.265625 -1.96875 "/></g></g></g><g fill="#000000" fill-opacity="1"><g transform="translate(421.738619, 413.793718)"><g><path d="M 1.125 0 L 1.125 -9.421875 L 7.3125 -9.421875 L 7.3125 -7.609375 L 3.25 -7.609375 L 3.25 -5.65625 L 6.953125 -5.65625 L 6.953125 -3.875 L 3.25 -3.875 L 3.25 -1.8125 L 7.46875 -1.8125 L 7.46875 0 Z M 1.125 0 "/></g></g></g><g fill="#000000" fill-opacity="1"><g transform="translate(437.461068, 413.793718)"><g><path d="M 1.125 0 L 1.125 -9.421875 L 2.953125 -9.421875 L 6.296875 -4.53125 L 9.625 -9.421875 L 11.4375 -9.421875 L 11.4375 0 L 9.3125 0 L 9.3125 -5.65625 L 7.015625 -2.328125 L 5.546875 -2.328125 L 3.25 -5.671875 L 3.25 0 Z M 1.125 0 "/></g></g></g><g fill="#000000" fill-opacity="1"><g transform="translate(457.594604, 413.793718)"><g><path d="M 3.59375 0 L 3.59375 -3.296875 L 0.125 -9.421875 L 2.5625 -9.421875 L 3.71875 -7.234375 L 4.671875 -5.53125 L 5.59375 -7.234375 L 6.75 -9.421875 L 9.1875 -9.421875 L 5.734375 -3.328125 L 5.734375 0 Z M 3.59375 0 "/></g></g></g><g fill="#000000" fill-opacity="1"><g transform="translate(143.957108, 409.387648)"><g><path d="M 4 -28.4375 L 1.859375 -27.53125 L 4.578125 -21.03125 L 9.265625 -30.640625 L 6.40625 -29.4375 L 4.234375 -34.578125 L 17.5 -40.15625 L 19.671875 -35.015625 L 17.359375 -34.046875 L 13.671875 -26.625 L 27.015625 -17.453125 L 29.328125 -18.421875 L 31.5 -13.234375 L 15.953125 -6.703125 L 13.78125 -11.890625 L 16.484375 -13.03125 L 9.3125 -17.984375 L 7.4375 -14.25 L 9.234375 -9.984375 L 11.375 -10.890625 L 13.546875 -5.703125 L 1 -0.421875 L -1.171875 -5.609375 L 0.984375 -6.515625 L -6.390625 -24.0625 L -8.546875 -23.15625 L -10.71875 -28.296875 L 1.828125 -33.578125 Z M 4 -28.4375 "/></g></g></g><g fill="#000000" fill-opacity="1"><g transform="translate(170.803924, 397.287987)"><g><path d="M 1.078125 0 L 1.0625 -5.75 L 3.75 -5.765625 L 3.71875 -24.53125 L 1.03125 -24.515625 L 1.015625 -30.234375 L 14.203125 -30.265625 C 17.691406 -30.273438 20.660156 -29.632812 23.109375 -28.34375 C 25.566406 -27.050781 27.4375 -25.289062 28.71875 -23.0625 C 30.007812 -20.84375 30.660156 -18.351562 30.671875 -15.59375 C 30.679688 -10.65625 29.253906 -6.828125 26.390625 -4.109375 C 23.523438 -1.398438 19.425781 -0.0390625 14.09375 -0.03125 Z M 12.609375 -5.78125 L 14.25 -5.78125 C 15.78125 -5.8125 17.019531 -6.269531 17.96875 -7.15625 C 18.925781 -8.039062 19.625 -9.21875 20.0625 -10.6875 C 20.507812 -12.15625 20.734375 -13.785156 20.734375 -15.578125 C 20.722656 -17.128906 20.492188 -18.585938 20.046875 -19.953125 C 19.597656 -21.328125 18.894531 -22.4375 17.9375 -23.28125 C 16.988281 -24.125 15.75 -24.546875 14.21875 -24.546875 L 12.578125 -24.546875 Z M 12.609375 -5.78125 "/></g></g></g><g fill="#000000" fill-opacity="1"><g transform="translate(196.284719, 395.64255)"><g><path d="M 32.25 13.46875 L 16.25 6.78125 L 18.4375 1.546875 L 22.234375 3.140625 L 22.5 0.078125 L 14.328125 -3.34375 L 12.359375 -0.984375 L 15.484375 0.3125 L 13.296875 5.546875 L 0.609375 0.25 L 2.796875 -4.984375 L 5.5 -3.84375 L 18.1875 -19.125 L 16.5625 -19.796875 L 18.71875 -24.953125 L 34.046875 -18.546875 L 31.640625 7.0625 L 34.4375 8.234375 Z M 17.796875 -7.515625 L 23.03125 -5.328125 L 24 -15.0625 Z M 17.796875 -7.515625 "/></g></g></g></svg>