<svg xmlns="http://www.w3.org/2000/svg" xmlns:xlink="http://www.w3.org/1999/xlink" width="336" zoomAndPan="magnify" viewBox="0 0 252 143.999998" height="192" preserveAspectRatio="xMidYMid meet" version="1.0"><defs><filter x="0%" y="0%" width="100%" height="100%" id="3b5bf92be4"><feColorMatrix values="0 0 0 0 1 0 0 0 0 1 0 0 0 0 1 0 0 0 1 0" color-interpolation-filters="sRGB"/></filter><g/><clipPath id="7966856cc0"><path d="M 5.664062 23 L 10 23 L 10 27 L 5.664062 27 Z M 5.664062 23 " clip-rule="nonzero"/></clipPath><clipPath id="5f50cd92a6"><path d="M 11 11.722656 L 14 11.722656 L 14 16 L 11 16 Z M 11 11.722656 " clip-rule="nonzero"/></clipPath><clipPath id="672d617d4c"><path d="M 16 32 L 19 32 L 19 35.722656 L 16 35.722656 Z M 16 32 " clip-rule="nonzero"/></clipPath><clipPath id="3324e89fd7"><path d="M 40.238281 32 L 47 32 L 47 34 L 40.238281 34 Z M 40.238281 32 " clip-rule="nonzero"/></clipPath><clipPath id="ac774e20a6"><path d="M 40.238281 28 L 46 28 L 46 33 L 40.238281 33 Z M 40.238281 28 " clip-rule="nonzero"/></clipPath><clipPath id="869b800d64"><path d="M 49 23 L 53.5625 23 L 53.5625 27 L 49 27 Z M 49 23 " clip-rule="nonzero"/></clipPath><clipPath id="3b13c791a8"><path d="M 45 11.722656 L 49 11.722656 L 49 16 L 45 16 Z M 45 11.722656 " clip-rule="nonzero"/></clipPath><clipPath id="cf5f601f6d"><path d="M 40.238281 32 L 43 32 L 43 35.722656 L 40.238281 35.722656 Z M 40.238281 32 " clip-rule="nonzero"/></clipPath><clipPath id="99644eb3ab"><path d="M 9.902344 3 L 48.902344 3 L 48.902344 17.953125 L 9.902344 17.953125 Z M 9.902344 3 " clip-rule="nonzero"/></clipPath><clipPath id="0bd6d4a1ad"><path d="M 18 25.03125 L 30 25.03125 L 30 29 L 18 29 Z M 18 25.03125 " clip-rule="nonzero"/></clipPath><clipPath id="d49e9a848e"><path d="M 20 25.03125 L 30 25.03125 L 30 28 L 20 28 Z M 20 25.03125 " clip-rule="nonzero"/></clipPath><clipPath id="b0d1730ee3"><path d="M 29 25.03125 L 41 25.03125 L 41 29 L 29 29 Z M 29 25.03125 " clip-rule="nonzero"/></clipPath><clipPath id="bacabe2830"><path d="M 29 25.03125 L 40 25.03125 L 40 28 L 29 28 Z M 29 25.03125 " clip-rule="nonzero"/></clipPath><clipPath id="1f58fd21e0"><path d="M 15 26 L 31 26 L 31 30.28125 L 15 30.28125 Z M 15 26 " clip-rule="nonzero"/></clipPath><clipPath id="8e6396823e"><path d="M 29 26 L 44.242188 26 L 44.242188 30.28125 L 29 30.28125 Z M 29 26 " clip-rule="nonzero"/></clipPath><mask id="2ee5b401dc"><g filter="url(#3b5bf92be4)"><rect x="-25.2" width="302.4" fill="#000000" y="-14.4" height="172.799997" fill-opacity="0.92"/></g></mask><clipPath id="311314b70f"><path d="M 2 0.304688 L 23.976562 0.304688 L 23.976562 4 L 2 4 Z M 2 0.304688 " clip-rule="nonzero"/></clipPath><clipPath id="a8a1900090"><path d="M 2 1 L 23.976562 1 L 23.976562 4.804688 L 2 4.804688 Z M 2 1 " clip-rule="nonzero"/></clipPath><clipPath id="52c7e5e2b1"><path d="M 1.59375 1 L 23.976562 1 L 23.976562 4.804688 L 1.59375 4.804688 Z M 1.59375 1 " clip-rule="nonzero"/></clipPath><clipPath id="0028888dc4"><rect x="0" width="25" y="0" height="5"/></clipPath></defs><path fill="#000000" d="M 18.355469 32.203125 C 18.355469 32.203125 18.015625 33.222656 15.949219 33.441406 C 13.886719 33.660156 13.003906 33.222656 13.003906 33.222656 C 13.003906 33.222656 14.382812 32.152344 15.703125 32.097656 C 17.023438 32.042969 18.355469 32.203125 18.355469 32.203125 Z M 18.355469 32.203125 " fill-opacity="1" fill-rule="nonzero"/><path fill="#000000" d="M 18.355469 32.203125 C 18.355469 32.203125 18.511719 31.140625 16.800781 29.964844 C 15.09375 28.789062 14.109375 28.757812 14.109375 28.757812 C 14.109375 28.757812 14.671875 30.207031 16.050781 31.058594 C 17.175781 31.75 18.355469 32.203125 18.355469 32.203125 Z M 18.355469 32.203125 " fill-opacity="1" fill-rule="nonzero"/><path fill="#000000" d="M 15.910156 31.449219 C 15.910156 31.449219 14.855469 30.976562 13.265625 30.976562 C 11.675781 30.976562 10.480469 31.800781 10.480469 31.800781 C 10.480469 31.800781 11.65625 32.273438 13.347656 32.273438 C 15.042969 32.273438 15.910156 31.449219 15.910156 31.449219 Z M 15.910156 31.449219 " fill-opacity="1" fill-rule="nonzero"/><path fill="#000000" d="M 13.964844 30.441406 C 13.964844 30.441406 13.878906 29.292969 13.117188 27.898438 C 12.359375 26.503906 11.0625 25.847656 11.0625 25.847656 C 11.0625 25.847656 11.207031 27.105469 12.015625 28.589844 C 12.824219 30.074219 13.964844 30.441406 13.964844 30.441406 Z M 13.964844 30.441406 " fill-opacity="1" fill-rule="nonzero"/><path fill="#000000" d="M 13.167969 30.296875 C 13.167969 30.296875 12.257812 29.589844 10.710938 29.21875 C 9.167969 28.847656 7.808594 29.371094 7.808594 29.371094 C 7.808594 29.371094 8.839844 30.105469 10.488281 30.5 C 12.132812 30.898438 13.167969 30.296875 13.167969 30.296875 Z M 13.167969 30.296875 " fill-opacity="1" fill-rule="nonzero"/><path fill="#000000" d="M 11.800781 29.074219 C 11.800781 29.074219 11.234375 28.070312 9.953125 27.128906 C 8.671875 26.191406 7.214844 26.148438 7.214844 26.148438 C 7.214844 26.148438 7.882812 27.226562 9.25 28.226562 C 10.613281 29.226562 11.800781 29.074219 11.800781 29.074219 Z M 11.800781 29.074219 " fill-opacity="1" fill-rule="nonzero"/><path fill="#000000" d="M 10.441406 27.007812 C 10.441406 27.007812 10.828125 25.980469 10.726562 24.476562 C 10.625 22.96875 9.765625 21.886719 9.765625 21.886719 C 9.765625 21.886719 9.390625 23.03125 9.496094 24.636719 C 9.605469 26.238281 10.441406 27.007812 10.441406 27.007812 Z M 10.441406 27.007812 " fill-opacity="1" fill-rule="nonzero"/><g clip-path="url(#7966856cc0)"><path fill="#000000" d="M 9.363281 26.035156 C 9.363281 26.035156 8.96875 25.121094 7.957031 24.199219 C 6.941406 23.273438 5.695312 23.101562 5.695312 23.101562 C 5.695312 23.101562 6.171875 24.089844 7.25 25.074219 C 8.332031 26.058594 9.363281 26.035156 9.363281 26.035156 Z M 9.363281 26.035156 " fill-opacity="1" fill-rule="nonzero"/></g><path fill="#000000" d="M 8.753906 24.007812 C 8.753906 24.007812 8.703125 23.015625 8.078125 21.792969 C 7.453125 20.574219 6.347656 19.980469 6.347656 19.980469 C 6.347656 19.980469 6.445312 21.066406 7.113281 22.367188 C 7.777344 23.667969 8.753906 24.007812 8.753906 24.007812 Z M 8.753906 24.007812 " fill-opacity="1" fill-rule="nonzero"/><path fill="#000000" d="M 8.324219 21.042969 C 8.324219 21.042969 8.410156 20.050781 7.957031 18.757812 C 7.503906 17.464844 6.488281 16.726562 6.488281 16.726562 C 6.488281 16.726562 6.4375 17.816406 6.921875 19.195312 C 7.40625 20.570312 8.324219 21.042969 8.324219 21.042969 Z M 8.324219 21.042969 " fill-opacity="1" fill-rule="nonzero"/><path fill="#000000" d="M 8.738281 19.085938 C 8.738281 19.085938 9.195312 18.199219 9.265625 16.832031 C 9.335938 15.460938 8.675781 14.394531 8.675781 14.394531 C 8.675781 14.394531 8.214844 15.386719 8.140625 16.84375 C 8.0625 18.300781 8.738281 19.085938 8.738281 19.085938 Z M 8.738281 19.085938 " fill-opacity="1" fill-rule="nonzero"/><path fill="#000000" d="M 9.863281 16.730469 C 9.863281 16.730469 10.457031 15.933594 10.75 14.59375 C 11.042969 13.253906 10.566406 12.09375 10.566406 12.09375 C 10.566406 12.09375 9.949219 13 9.636719 14.425781 C 9.324219 15.851562 9.863281 16.730469 9.863281 16.730469 Z M 9.863281 16.730469 " fill-opacity="1" fill-rule="nonzero"/><path fill="#000000" d="M 8.804688 22.734375 C 8.804688 22.734375 9.546875 22.070312 10.105469 20.816406 C 10.660156 19.5625 10.425781 18.328125 10.425781 18.328125 C 10.425781 18.328125 9.640625 19.09375 9.046875 20.425781 C 8.457031 21.761719 8.804688 22.734375 8.804688 22.734375 Z M 8.804688 22.734375 " fill-opacity="1" fill-rule="nonzero"/><path fill="#000000" d="M 9.625 18.253906 C 9.625 18.253906 10.578125 17.949219 11.59375 17.027344 C 12.613281 16.109375 12.902344 14.890625 12.902344 14.890625 C 12.902344 14.890625 11.875 15.265625 10.789062 16.246094 C 9.703125 17.222656 9.625 18.253906 9.625 18.253906 Z M 9.625 18.253906 " fill-opacity="1" fill-rule="nonzero"/><g clip-path="url(#5f50cd92a6)"><path fill="#000000" d="M 11.03125 15.511719 C 11.03125 15.511719 11.929688 15.078125 12.8125 14.027344 C 13.691406 12.976562 13.8125 11.730469 13.8125 11.730469 C 13.8125 11.730469 12.84375 12.242188 11.902344 13.363281 C 10.964844 14.480469 11.03125 15.511719 11.03125 15.511719 Z M 11.03125 15.511719 " fill-opacity="1" fill-rule="nonzero"/></g><g clip-path="url(#672d617d4c)"><path fill="#000000" d="M 18.5 32.847656 C 18.5 34.226562 16.226562 35.726562 16.226562 34.996094 C 16.226562 34.261719 18.5 33.335938 18.5 32.847656 Z M 18.5 32.847656 " fill-opacity="1" fill-rule="nonzero"/></g><g clip-path="url(#3324e89fd7)"><path fill="#000000" d="M 40.867188 32.203125 C 40.867188 32.203125 41.210938 33.222656 43.273438 33.441406 C 45.339844 33.660156 46.21875 33.222656 46.21875 33.222656 C 46.21875 33.222656 44.84375 32.152344 43.523438 32.097656 C 42.203125 32.042969 40.867188 32.203125 40.867188 32.203125 Z M 40.867188 32.203125 " fill-opacity="1" fill-rule="nonzero"/></g><g clip-path="url(#ac774e20a6)"><path fill="#000000" d="M 40.867188 32.203125 C 40.867188 32.203125 40.714844 31.140625 42.421875 29.964844 C 44.132812 28.789062 45.117188 28.757812 45.117188 28.757812 C 45.117188 28.757812 44.550781 30.207031 43.175781 31.058594 C 42.050781 31.75 40.867188 32.203125 40.867188 32.203125 Z M 40.867188 32.203125 " fill-opacity="1" fill-rule="nonzero"/></g><path fill="#000000" d="M 43.316406 31.449219 C 43.316406 31.449219 44.371094 30.976562 45.960938 30.976562 C 47.550781 30.976562 48.746094 31.800781 48.746094 31.800781 C 48.746094 31.800781 47.570312 32.273438 45.875 32.273438 C 44.183594 32.273438 43.316406 31.449219 43.316406 31.449219 Z M 43.316406 31.449219 " fill-opacity="1" fill-rule="nonzero"/><path fill="#000000" d="M 45.261719 30.441406 C 45.261719 30.441406 45.347656 29.292969 46.105469 27.898438 C 46.867188 26.503906 48.164062 25.847656 48.164062 25.847656 C 48.164062 25.847656 48.019531 27.105469 47.210938 28.589844 C 46.402344 30.074219 45.261719 30.441406 45.261719 30.441406 Z M 45.261719 30.441406 " fill-opacity="1" fill-rule="nonzero"/><path fill="#000000" d="M 46.054688 30.296875 C 46.054688 30.296875 46.96875 29.589844 48.515625 29.21875 C 50.058594 28.847656 51.417969 29.371094 51.417969 29.371094 C 51.417969 29.371094 50.382812 30.105469 48.738281 30.5 C 47.09375 30.898438 46.054688 30.296875 46.054688 30.296875 Z M 46.054688 30.296875 " fill-opacity="1" fill-rule="nonzero"/><path fill="#000000" d="M 47.425781 29.074219 C 47.425781 29.074219 47.992188 28.070312 49.273438 27.128906 C 50.554688 26.191406 52.007812 26.148438 52.007812 26.148438 C 52.007812 26.148438 51.339844 27.226562 49.976562 28.226562 C 48.613281 29.226562 47.425781 29.074219 47.425781 29.074219 Z M 47.425781 29.074219 " fill-opacity="1" fill-rule="nonzero"/><path fill="#000000" d="M 48.78125 27.007812 C 48.78125 27.007812 48.398438 25.980469 48.5 24.476562 C 48.597656 22.96875 49.457031 21.886719 49.457031 21.886719 C 49.457031 21.886719 49.835938 23.03125 49.726562 24.636719 C 49.621094 26.238281 48.78125 27.007812 48.78125 27.007812 Z M 48.78125 27.007812 " fill-opacity="1" fill-rule="nonzero"/><g clip-path="url(#869b800d64)"><path fill="#000000" d="M 49.859375 26.035156 C 49.859375 26.035156 50.257812 25.121094 51.269531 24.199219 C 52.285156 23.273438 53.53125 23.101562 53.53125 23.101562 C 53.53125 23.101562 53.054688 24.089844 51.976562 25.074219 C 50.894531 26.058594 49.859375 26.035156 49.859375 26.035156 Z M 49.859375 26.035156 " fill-opacity="1" fill-rule="nonzero"/></g><path fill="#000000" d="M 50.472656 24.007812 C 50.472656 24.007812 50.519531 23.015625 51.148438 21.792969 C 51.773438 20.574219 52.878906 19.980469 52.878906 19.980469 C 52.878906 19.980469 52.78125 21.066406 52.113281 22.367188 C 51.449219 23.667969 50.472656 24.007812 50.472656 24.007812 Z M 50.472656 24.007812 " fill-opacity="1" fill-rule="nonzero"/><path fill="#000000" d="M 50.898438 21.042969 C 50.898438 21.042969 50.8125 20.050781 51.269531 18.757812 C 51.722656 17.464844 52.738281 16.726562 52.738281 16.726562 C 52.738281 16.726562 52.789062 17.816406 52.304688 19.195312 C 51.820312 20.570312 50.898438 21.042969 50.898438 21.042969 Z M 50.898438 21.042969 " fill-opacity="1" fill-rule="nonzero"/><path fill="#000000" d="M 50.488281 19.085938 C 50.488281 19.085938 50.03125 18.199219 49.960938 16.832031 C 49.890625 15.460938 50.550781 14.394531 50.550781 14.394531 C 50.550781 14.394531 51.011719 15.386719 51.085938 16.84375 C 51.160156 18.300781 50.488281 19.085938 50.488281 19.085938 Z M 50.488281 19.085938 " fill-opacity="1" fill-rule="nonzero"/><path fill="#000000" d="M 49.363281 16.730469 C 49.363281 16.730469 48.769531 15.933594 48.476562 14.59375 C 48.183594 13.253906 48.660156 12.09375 48.660156 12.09375 C 48.660156 12.09375 49.277344 13 49.589844 14.425781 C 49.902344 15.851562 49.363281 16.730469 49.363281 16.730469 Z M 49.363281 16.730469 " fill-opacity="1" fill-rule="nonzero"/><path fill="#000000" d="M 50.421875 22.734375 C 50.421875 22.734375 49.675781 22.070312 49.121094 20.816406 C 48.566406 19.5625 48.800781 18.328125 48.800781 18.328125 C 48.800781 18.328125 49.585938 19.09375 50.179688 20.425781 C 50.769531 21.761719 50.421875 22.734375 50.421875 22.734375 Z M 50.421875 22.734375 " fill-opacity="1" fill-rule="nonzero"/><path fill="#000000" d="M 49.597656 18.253906 C 49.597656 18.253906 48.648438 17.949219 47.628906 17.027344 C 46.613281 16.109375 46.324219 14.890625 46.324219 14.890625 C 46.324219 14.890625 47.351562 15.265625 48.4375 16.246094 C 49.523438 17.222656 49.597656 18.253906 49.597656 18.253906 Z M 49.597656 18.253906 " fill-opacity="1" fill-rule="nonzero"/><g clip-path="url(#3b13c791a8)"><path fill="#000000" d="M 48.195312 15.511719 C 48.195312 15.511719 47.296875 15.078125 46.414062 14.027344 C 45.53125 12.976562 45.414062 11.730469 45.414062 11.730469 C 45.414062 11.730469 46.382812 12.242188 47.320312 13.363281 C 48.261719 14.480469 48.195312 15.511719 48.195312 15.511719 Z M 48.195312 15.511719 " fill-opacity="1" fill-rule="nonzero"/></g><g clip-path="url(#cf5f601f6d)"><path fill="#000000" d="M 40.726562 32.847656 C 40.726562 34.226562 43 35.726562 43 34.996094 C 43 34.261719 40.726562 33.335938 40.726562 32.847656 Z M 40.726562 32.847656 " fill-opacity="1" fill-rule="nonzero"/></g><g clip-path="url(#99644eb3ab)"><path fill="#000000" d="M 48.566406 7.605469 L 30.324219 3.109375 C 29.710938 2.960938 29.074219 2.960938 28.476562 3.109375 L 10.21875 7.605469 C 9.902344 7.679688 9.902344 8.132812 10.21875 8.207031 L 19.1875 10.417969 C 24.265625 8.933594 29.726562 8.859375 34.917969 9.765625 C 29.660156 9.1875 24.125 9.636719 19.1875 11.507812 L 19.1875 14.03125 C 19.1875 14.246094 19.390625 14.382812 19.597656 14.320312 C 22.503906 13.441406 25.847656 12.925781 29.394531 12.925781 C 32.941406 12.925781 36.28125 13.441406 39.203125 14.320312 C 39.40625 14.382812 39.597656 14.246094 39.597656 14.03125 L 39.597656 10.417969 L 43.515625 9.449219 L 43.515625 16.203125 L 43.453125 16.203125 C 43.3125 16.203125 43.195312 16.316406 43.195312 16.453125 L 43.195312 17.695312 C 43.195312 17.835938 43.3125 17.949219 43.453125 17.949219 L 44.214844 17.949219 C 44.355469 17.949219 44.472656 17.835938 44.472656 17.695312 L 44.472656 16.453125 C 44.472656 16.316406 44.355469 16.203125 44.214844 16.203125 L 44.152344 16.203125 L 44.152344 9.300781 L 48.566406 8.207031 C 48.898438 8.132812 48.898438 7.679688 48.566406 7.605469 Z M 48.566406 7.605469 " fill-opacity="1" fill-rule="nonzero"/></g><path fill="#5c3410" d="M 16.59375 26.6875 L 26.871094 26.808594 C 27.617188 26.820312 28.421875 26.8125 28.9375 27.382812 C 29.285156 27.765625 29.492188 28.410156 29.480469 29.472656 C 29.480469 29.570312 29.558594 29.648438 29.65625 29.648438 C 29.753906 29.648438 29.832031 29.570312 29.832031 29.472656 C 29.816406 28.292969 29.550781 27.597656 29.15625 27.179688 C 28.570312 26.566406 27.691406 26.558594 26.871094 26.566406 Z M 16.59375 26.6875 " fill-opacity="1" fill-rule="evenodd"/><g clip-path="url(#0bd6d4a1ad)"><path fill="#5c3410" d="M 18.589844 25.980469 L 27.304688 26.101562 C 27.933594 26.109375 28.609375 26.105469 29.042969 26.585938 C 29.332031 26.910156 29.503906 27.449219 29.492188 28.34375 C 29.492188 28.441406 29.570312 28.519531 29.667969 28.519531 C 29.765625 28.519531 29.84375 28.441406 29.84375 28.34375 C 29.832031 27.335938 29.597656 26.738281 29.261719 26.382812 C 28.757812 25.855469 28.011719 25.847656 27.304688 25.859375 Z M 18.589844 25.980469 " fill-opacity="1" fill-rule="evenodd"/></g><g clip-path="url(#d49e9a848e)"><path fill="#5c3410" d="M 20.277344 25.15625 L 27.675781 25.277344 C 28.199219 25.285156 28.769531 25.28125 29.128906 25.683594 C 29.375 25.957031 29.511719 26.410156 29.5 27.160156 C 29.5 27.257812 29.582031 27.335938 29.675781 27.335938 C 29.773438 27.335938 29.855469 27.257812 29.855469 27.160156 C 29.839844 26.296875 29.640625 25.785156 29.347656 25.480469 C 28.917969 25.035156 28.277344 25.023438 27.675781 25.035156 Z M 20.277344 25.15625 " fill-opacity="1" fill-rule="evenodd"/></g><path fill="#5c3410" d="M 42.679688 26.6875 L 32.40625 26.566406 C 31.582031 26.558594 30.707031 26.566406 30.121094 27.179688 C 29.726562 27.597656 29.457031 28.292969 29.445312 29.472656 C 29.445312 29.570312 29.523438 29.648438 29.621094 29.648438 C 29.71875 29.648438 29.796875 29.570312 29.796875 29.472656 C 29.785156 28.410156 29.992188 27.765625 30.339844 27.382812 C 30.855469 26.8125 31.660156 26.820312 32.40625 26.808594 Z M 42.679688 26.6875 " fill-opacity="1" fill-rule="evenodd"/><g clip-path="url(#b0d1730ee3)"><path fill="#5c3410" d="M 40.71875 25.980469 L 32 25.859375 C 31.296875 25.847656 30.546875 25.855469 30.046875 26.382812 C 29.707031 26.738281 29.476562 27.335938 29.460938 28.34375 C 29.460938 28.441406 29.542969 28.519531 29.636719 28.519531 C 29.734375 28.519531 29.816406 28.441406 29.816406 28.34375 C 29.800781 27.449219 29.972656 26.910156 30.265625 26.585938 C 30.699219 26.105469 31.375 26.109375 32 26.101562 Z M 40.71875 25.980469 " fill-opacity="1" fill-rule="evenodd"/></g><g clip-path="url(#bacabe2830)"><path fill="#5c3410" d="M 39.058594 25.15625 L 31.664062 25.035156 C 31.058594 25.023438 30.417969 25.035156 29.988281 25.480469 C 29.695312 25.785156 29.496094 26.296875 29.480469 27.160156 C 29.480469 27.257812 29.5625 27.335938 29.660156 27.335938 C 29.753906 27.335938 29.835938 27.257812 29.835938 27.160156 C 29.824219 26.410156 29.960938 25.957031 30.207031 25.683594 C 30.570312 25.28125 31.136719 25.285156 31.664062 25.277344 Z M 39.058594 25.15625 " fill-opacity="1" fill-rule="evenodd"/></g><g clip-path="url(#1f58fd21e0)"><path fill="#000000" d="M 15.023438 27.160156 L 26.519531 27.480469 C 27.300781 27.496094 28.144531 27.480469 28.679688 28.078125 C 28.984375 28.417969 29.023438 28.972656 29.222656 29.78125 C 29.238281 29.855469 29.265625 29.910156 29.308594 29.976562 C 29.355469 30.046875 29.378906 30.0625 29.441406 30.121094 C 29.535156 30.210938 29.535156 30.191406 29.636719 30.273438 C 29.738281 30.191406 29.734375 30.207031 29.824219 30.117188 C 29.890625 30.050781 29.910156 30.027344 29.953125 29.949219 C 29.992188 29.875 30.007812 29.808594 30.015625 29.726562 C 30.125 28.664062 29.632812 27.992188 29.226562 27.570312 C 28.925781 27.253906 28.566406 27.0625 28.167969 26.960938 C 27.652344 26.820312 27.074219 26.828125 26.519531 26.839844 Z M 15.023438 27.160156 " fill-opacity="1" fill-rule="evenodd"/></g><g clip-path="url(#8e6396823e)"><path fill="#000000" d="M 44.214844 27.160156 L 32.714844 26.839844 C 32.164062 26.828125 31.585938 26.820312 31.066406 26.960938 C 30.671875 27.0625 30.3125 27.253906 30.007812 27.570312 C 29.605469 27.992188 29.109375 28.664062 29.21875 29.726562 C 29.226562 29.808594 29.246094 29.875 29.285156 29.949219 C 29.328125 30.027344 29.347656 30.050781 29.410156 30.117188 C 29.5 30.207031 29.496094 30.191406 29.601562 30.273438 C 29.703125 30.191406 29.703125 30.210938 29.792969 30.121094 C 29.859375 30.0625 29.882812 30.046875 29.929688 29.976562 C 29.96875 29.910156 30 29.855469 30.015625 29.78125 C 30.210938 28.972656 30.253906 28.417969 30.558594 28.078125 C 31.09375 27.480469 31.9375 27.496094 32.714844 27.480469 Z M 44.214844 27.160156 " fill-opacity="1" fill-rule="evenodd"/></g><g mask="url(#2ee5b401dc)"><g transform="matrix(1, 0, 0, 1, 17, 31)"><g clip-path="url(#0028888dc4)"><g clip-path="url(#311314b70f)"><path fill="#000000" d="M 24.078125 3.597656 L 24.019531 3.65625 C 23.847656 3.488281 23.65625 3.339844 23.449219 3.21875 C 23.242188 3.09375 23.023438 2.988281 22.796875 2.894531 C 22.351562 2.71875 21.886719 2.578125 21.414062 2.480469 C 20.941406 2.378906 20.457031 2.320312 19.972656 2.304688 C 19.488281 2.289062 19 2.316406 18.519531 2.382812 C 18.277344 2.414062 18.039062 2.460938 17.800781 2.515625 C 17.742188 2.527344 17.683594 2.542969 17.621094 2.558594 L 17.445312 2.605469 C 17.328125 2.636719 17.210938 2.671875 17.09375 2.710938 C 16.632812 2.855469 16.183594 3.027344 15.734375 3.183594 C 15.285156 3.335938 14.835938 3.472656 14.382812 3.542969 C 14.160156 3.578125 13.933594 3.597656 13.710938 3.597656 C 13.488281 3.59375 13.269531 3.566406 13.054688 3.519531 C 12.625 3.417969 12.210938 3.226562 11.8125 2.996094 C 11.410156 2.761719 11.023438 2.492188 10.617188 2.226562 C 10.210938 1.960938 9.785156 1.691406 9.308594 1.488281 C 9.074219 1.386719 8.824219 1.300781 8.5625 1.242188 L 8.464844 1.222656 C 8.429688 1.214844 8.398438 1.210938 8.363281 1.203125 L 8.265625 1.1875 C 8.230469 1.183594 8.195312 1.179688 8.164062 1.175781 L 8.0625 1.167969 C 8.027344 1.164062 7.992188 1.164062 7.960938 1.164062 C 7.894531 1.160156 7.824219 1.15625 7.757812 1.160156 C 7.488281 1.164062 7.21875 1.199219 6.964844 1.257812 C 6.707031 1.3125 6.460938 1.390625 6.222656 1.476562 C 5.742188 1.652344 5.300781 1.867188 4.867188 2.066406 C 4.441406 2.261719 4.019531 2.4375 3.601562 2.554688 C 3.183594 2.667969 2.769531 2.714844 2.394531 2.65625 C 2.4375 2.480469 2.472656 2.304688 2.507812 2.125 C 2.539062 1.945312 2.566406 1.769531 2.589844 1.589844 C 2.601562 1.589844 2.609375 1.59375 2.621094 1.597656 L 2.636719 1.597656 L 2.65625 1.601562 C 2.679688 1.601562 2.703125 1.609375 2.726562 1.609375 C 2.753906 1.609375 2.777344 1.613281 2.804688 1.613281 C 2.816406 1.613281 2.832031 1.613281 2.847656 1.613281 L 2.890625 1.613281 C 2.902344 1.613281 2.917969 1.613281 2.933594 1.613281 L 2.980469 1.609375 C 3.011719 1.605469 3.039062 1.605469 3.074219 1.597656 L 3.171875 1.585938 L 3.277344 1.566406 C 3.433594 1.535156 3.601562 1.492188 3.777344 1.4375 C 3.953125 1.382812 4.136719 1.3125 4.332031 1.238281 L 4.402344 1.210938 L 4.476562 1.179688 L 4.632812 1.113281 L 4.953125 0.984375 C 5.175781 0.894531 5.40625 0.800781 5.652344 0.714844 C 5.714844 0.691406 5.773438 0.671875 5.835938 0.648438 L 6.027344 0.589844 L 6.226562 0.53125 C 6.257812 0.519531 6.292969 0.511719 6.328125 0.503906 L 6.429688 0.476562 C 6.703125 0.410156 6.996094 0.355469 7.300781 0.332031 C 7.605469 0.304688 7.929688 0.3125 8.242188 0.351562 C 8.554688 0.394531 8.855469 0.472656 9.132812 0.570312 C 9.410156 0.667969 9.667969 0.789062 9.90625 0.917969 C 10.144531 1.046875 10.363281 1.183594 10.566406 1.320312 C 10.980469 1.597656 11.34375 1.875 11.691406 2.125 C 12.039062 2.371094 12.371094 2.589844 12.695312 2.75 C 12.859375 2.832031 13.023438 2.894531 13.183594 2.945312 C 13.34375 2.992188 13.511719 3.019531 13.6875 3.035156 C 13.863281 3.050781 14.042969 3.046875 14.234375 3.03125 C 14.425781 3.015625 14.621094 2.984375 14.820312 2.941406 C 15.222656 2.859375 15.636719 2.730469 16.066406 2.597656 C 16.5 2.464844 16.945312 2.324219 17.414062 2.21875 C 17.882812 2.113281 18.359375 2.050781 18.832031 2.023438 C 19.78125 1.96875 20.726562 2.070312 21.625 2.316406 C 21.738281 2.347656 21.851562 2.382812 21.960938 2.417969 C 22.070312 2.453125 22.179688 2.492188 22.289062 2.53125 C 22.398438 2.574219 22.507812 2.613281 22.613281 2.65625 C 22.722656 2.699219 22.828125 2.75 22.933594 2.796875 C 23.039062 2.847656 23.140625 2.902344 23.242188 2.960938 C 23.34375 3.015625 23.445312 3.078125 23.542969 3.144531 C 23.636719 3.210938 23.734375 3.277344 23.824219 3.355469 C 23.914062 3.429688 23.996094 3.511719 24.078125 3.597656 Z M 24.078125 3.597656 " fill-opacity="1" fill-rule="nonzero"/></g><g clip-path="url(#a8a1900090)"><path fill="#df0000" d="M 24.019531 3.65625 L 23.925781 3.757812 C 23.757812 3.605469 23.566406 3.472656 23.359375 3.359375 C 23.15625 3.25 22.941406 3.15625 22.71875 3.078125 C 22.273438 2.921875 21.8125 2.804688 21.347656 2.726562 L 21.261719 2.710938 L 21.171875 2.699219 L 21 2.675781 C 20.941406 2.667969 20.882812 2.664062 20.824219 2.660156 L 20.644531 2.640625 C 20.585938 2.636719 20.527344 2.636719 20.46875 2.632812 C 20.410156 2.628906 20.351562 2.625 20.292969 2.625 L 20.117188 2.621094 C 20.058594 2.621094 20 2.617188 19.941406 2.621094 C 19.46875 2.625 19 2.671875 18.539062 2.757812 L 18.453125 2.773438 L 18.195312 2.832031 L 18.152344 2.839844 L 18.109375 2.851562 L 18.023438 2.871094 L 17.855469 2.917969 C 17.742188 2.953125 17.632812 2.984375 17.519531 3.019531 C 17.40625 3.054688 17.296875 3.09375 17.1875 3.136719 C 16.742188 3.300781 16.300781 3.488281 15.84375 3.664062 C 15.382812 3.839844 14.910156 4.003906 14.40625 4.097656 C 14.28125 4.125 14.152344 4.140625 14.023438 4.15625 C 13.960938 4.160156 13.894531 4.167969 13.828125 4.167969 C 13.796875 4.171875 13.765625 4.171875 13.730469 4.175781 L 13.632812 4.175781 C 13.371094 4.179688 13.105469 4.148438 12.84375 4.09375 C 12.585938 4.039062 12.335938 3.960938 12.097656 3.863281 C 11.859375 3.765625 11.632812 3.652344 11.410156 3.535156 C 10.96875 3.296875 10.558594 3.03125 10.148438 2.789062 C 9.742188 2.546875 9.335938 2.324219 8.921875 2.179688 C 8.71875 2.105469 8.507812 2.050781 8.300781 2.023438 C 8.25 2.015625 8.199219 2.007812 8.148438 2.003906 C 8.09375 2.003906 8.042969 1.996094 7.992188 1.996094 L 7.835938 1.996094 L 7.679688 2.007812 C 7.265625 2.050781 6.84375 2.1875 6.425781 2.367188 C 6.21875 2.457031 6.007812 2.558594 5.796875 2.664062 L 5.152344 2.996094 C 4.929688 3.105469 4.703125 3.214844 4.464844 3.3125 C 4.230469 3.414062 3.984375 3.503906 3.726562 3.578125 C 3.46875 3.648438 3.203125 3.703125 2.921875 3.730469 C 2.644531 3.753906 2.355469 3.746094 2.066406 3.695312 C 2.097656 3.609375 2.128906 3.527344 2.160156 3.441406 C 2.191406 3.351562 2.21875 3.265625 2.246094 3.179688 C 2.300781 3.003906 2.347656 2.832031 2.390625 2.65625 C 2.769531 2.714844 3.183594 2.667969 3.601562 2.554688 C 4.019531 2.4375 4.441406 2.261719 4.867188 2.066406 C 5.296875 1.867188 5.742188 1.652344 6.21875 1.476562 C 6.460938 1.390625 6.707031 1.3125 6.960938 1.257812 C 7.21875 1.199219 7.484375 1.164062 7.757812 1.160156 C 7.824219 1.15625 7.890625 1.160156 7.960938 1.164062 C 7.992188 1.164062 8.027344 1.164062 8.0625 1.167969 L 8.164062 1.175781 C 8.195312 1.179688 8.230469 1.183594 8.261719 1.1875 L 8.363281 1.203125 C 8.394531 1.210938 8.429688 1.214844 8.460938 1.222656 L 8.558594 1.242188 C 8.820312 1.300781 9.074219 1.386719 9.308594 1.488281 C 9.785156 1.691406 10.210938 1.960938 10.617188 2.226562 C 11.019531 2.492188 11.410156 2.761719 11.8125 2.996094 C 12.210938 3.226562 12.621094 3.417969 13.054688 3.519531 C 13.265625 3.566406 13.488281 3.59375 13.710938 3.597656 C 13.933594 3.597656 14.15625 3.578125 14.382812 3.542969 C 14.835938 3.472656 15.285156 3.335938 15.734375 3.183594 C 16.183594 3.027344 16.632812 2.855469 17.09375 2.710938 C 17.210938 2.671875 17.328125 2.636719 17.445312 2.605469 L 17.621094 2.558594 C 17.679688 2.542969 17.738281 2.527344 17.800781 2.515625 C 18.039062 2.460938 18.277344 2.414062 18.519531 2.382812 C 19 2.316406 19.488281 2.289062 19.972656 2.304688 C 20.457031 2.320312 20.941406 2.378906 21.414062 2.476562 C 21.886719 2.578125 22.351562 2.71875 22.796875 2.894531 C 23.019531 2.988281 23.238281 3.09375 23.445312 3.21875 C 23.652344 3.339844 23.847656 3.488281 24.019531 3.65625 Z M 24.019531 3.65625 " fill-opacity="1" fill-rule="nonzero"/></g><g clip-path="url(#52c7e5e2b1)"><path fill="#fece00" d="M 23.925781 3.757812 L 23.871094 3.816406 C 23.542969 3.546875 23.148438 3.367188 22.730469 3.230469 C 22.625 3.199219 22.519531 3.167969 22.414062 3.140625 L 22.253906 3.097656 L 22.171875 3.078125 C 22.144531 3.074219 22.121094 3.066406 22.09375 3.0625 L 21.929688 3.027344 C 21.875 3.015625 21.824219 3.003906 21.769531 2.996094 L 21.605469 2.96875 L 21.441406 2.945312 C 20.570312 2.828125 19.6875 2.859375 18.84375 3.03125 C 18.816406 3.035156 18.789062 3.039062 18.765625 3.046875 L 18.683594 3.0625 L 18.527344 3.097656 C 18.425781 3.125 18.320312 3.15625 18.21875 3.183594 C 18.117188 3.214844 18.011719 3.246094 17.910156 3.277344 L 17.761719 3.332031 C 17.710938 3.351562 17.660156 3.367188 17.609375 3.386719 C 17.210938 3.542969 16.804688 3.730469 16.378906 3.921875 C 15.957031 4.113281 15.507812 4.3125 15.019531 4.46875 C 14.773438 4.542969 14.515625 4.609375 14.246094 4.65625 C 13.976562 4.703125 13.695312 4.730469 13.40625 4.726562 C 13.117188 4.722656 12.820312 4.6875 12.542969 4.625 C 12.261719 4.5625 11.996094 4.476562 11.742188 4.378906 C 11.238281 4.183594 10.789062 3.941406 10.375 3.714844 C 9.964844 3.484375 9.578125 3.269531 9.21875 3.109375 C 9.039062 3.027344 8.863281 2.960938 8.699219 2.910156 C 8.535156 2.859375 8.378906 2.828125 8.234375 2.816406 C 8.089844 2.800781 7.957031 2.804688 7.820312 2.824219 C 7.683594 2.839844 7.542969 2.875 7.386719 2.925781 C 7.234375 2.976562 7.074219 3.042969 6.90625 3.121094 C 6.738281 3.199219 6.5625 3.292969 6.378906 3.394531 C 6.195312 3.496094 6.003906 3.605469 5.800781 3.71875 L 5.648438 3.804688 L 5.484375 3.898438 C 5.371094 3.957031 5.257812 4.019531 5.140625 4.078125 C 4.90625 4.195312 4.65625 4.3125 4.386719 4.417969 C 4.121094 4.519531 3.832031 4.613281 3.515625 4.683594 L 3.410156 4.707031 C 3.375 4.714844 3.335938 4.722656 3.300781 4.726562 L 3.1875 4.746094 L 3.132812 4.753906 C 3.113281 4.757812 3.09375 4.757812 3.074219 4.761719 C 3 4.769531 2.921875 4.777344 2.84375 4.785156 C 2.765625 4.789062 2.683594 4.792969 2.605469 4.796875 C 2.28125 4.800781 1.941406 4.773438 1.605469 4.699219 C 1.78125 4.371094 1.9375 4.035156 2.066406 3.695312 C 2.355469 3.746094 2.644531 3.753906 2.921875 3.726562 C 3.203125 3.703125 3.472656 3.648438 3.726562 3.574219 C 3.984375 3.503906 4.230469 3.414062 4.464844 3.3125 C 4.703125 3.214844 4.929688 3.105469 5.152344 2.992188 L 5.796875 2.664062 C 6.011719 2.558594 6.21875 2.457031 6.429688 2.367188 C 6.84375 2.1875 7.265625 2.050781 7.683594 2.007812 L 7.835938 1.996094 L 7.992188 1.996094 C 8.042969 1.996094 8.097656 2.003906 8.148438 2.003906 C 8.199219 2.007812 8.25 2.015625 8.304688 2.023438 C 8.511719 2.050781 8.71875 2.105469 8.925781 2.179688 C 9.335938 2.324219 9.742188 2.546875 10.148438 2.789062 C 10.558594 3.03125 10.96875 3.296875 11.410156 3.535156 C 11.632812 3.652344 11.859375 3.765625 12.097656 3.863281 C 12.339844 3.960938 12.589844 4.039062 12.847656 4.09375 C 13.105469 4.148438 13.371094 4.179688 13.632812 4.175781 L 13.730469 4.171875 C 13.765625 4.171875 13.796875 4.171875 13.828125 4.167969 C 13.894531 4.167969 13.960938 4.160156 14.023438 4.152344 C 14.152344 4.140625 14.28125 4.121094 14.40625 4.097656 C 14.910156 4.003906 15.386719 3.839844 15.84375 3.664062 C 16.300781 3.488281 16.742188 3.300781 17.1875 3.136719 C 17.296875 3.09375 17.410156 3.054688 17.519531 3.019531 C 17.632812 2.984375 17.742188 2.949219 17.855469 2.917969 L 18.027344 2.871094 L 18.109375 2.851562 L 18.195312 2.828125 L 18.367188 2.792969 L 18.453125 2.773438 L 18.539062 2.757812 C 19 2.671875 19.46875 2.625 19.941406 2.621094 C 20 2.617188 20.058594 2.621094 20.117188 2.621094 L 20.292969 2.625 C 20.351562 2.625 20.410156 2.628906 20.46875 2.632812 C 20.527344 2.636719 20.589844 2.636719 20.648438 2.640625 L 20.824219 2.65625 C 20.882812 2.664062 20.941406 2.667969 21 2.675781 L 21.175781 2.699219 L 21.261719 2.710938 L 21.347656 2.726562 C 21.8125 2.804688 22.273438 2.921875 22.71875 3.078125 C 22.941406 3.15625 23.15625 3.25 23.363281 3.359375 C 23.566406 3.472656 23.757812 3.605469 23.929688 3.757812 Z M 23.925781 3.757812 " fill-opacity="1" fill-rule="nonzero"/></g></g></g></g><g fill="#000000" fill-opacity="1"><g transform="translate(59.409488, 22.112322)"><g><path d="M 5.78125 0 L 2.609375 -3.890625 L 2.609375 0 L 0.859375 0 L 0.859375 -8.71875 L 2.609375 -8.71875 L 2.609375 -4.8125 L 5.78125 -8.71875 L 7.90625 -8.71875 L 4.296875 -4.40625 L 8 0 Z M 5.78125 0 "/></g></g></g><g fill="#000000" fill-opacity="1"><g transform="translate(66.962792, 22.112322)"><g><path d="M 2.609375 -8.71875 L 2.609375 0 L 0.859375 0 L 0.859375 -8.71875 Z M 2.609375 -8.71875 "/></g></g></g><g fill="#000000" fill-opacity="1"><g transform="translate(69.701324, 22.112322)"><g><path d="M 6.9375 -6.09375 C 6.738281 -6.46875 6.460938 -6.75 6.109375 -6.9375 C 5.765625 -7.125 5.359375 -7.21875 4.890625 -7.21875 C 4.367188 -7.21875 3.90625 -7.101562 3.5 -6.875 C 3.101562 -6.644531 2.789062 -6.3125 2.5625 -5.875 C 2.34375 -5.4375 2.234375 -4.9375 2.234375 -4.375 C 2.234375 -3.789062 2.347656 -3.28125 2.578125 -2.84375 C 2.804688 -2.414062 3.125 -2.082031 3.53125 -1.84375 C 3.945312 -1.613281 4.425781 -1.5 4.96875 -1.5 C 5.632812 -1.5 6.175781 -1.675781 6.59375 -2.03125 C 7.019531 -2.382812 7.300781 -2.878906 7.4375 -3.515625 L 4.4375 -3.515625 L 4.4375 -4.84375 L 9.15625 -4.84375 L 9.15625 -3.328125 C 9.039062 -2.710938 8.789062 -2.144531 8.40625 -1.625 C 8.03125 -1.113281 7.539062 -0.703125 6.9375 -0.390625 C 6.332031 -0.078125 5.65625 0.078125 4.90625 0.078125 C 4.0625 0.078125 3.296875 -0.109375 2.609375 -0.484375 C 1.929688 -0.867188 1.398438 -1.398438 1.015625 -2.078125 C 0.628906 -2.753906 0.4375 -3.519531 0.4375 -4.375 C 0.4375 -5.226562 0.628906 -5.992188 1.015625 -6.671875 C 1.398438 -7.359375 1.929688 -7.890625 2.609375 -8.265625 C 3.296875 -8.648438 4.054688 -8.84375 4.890625 -8.84375 C 5.867188 -8.84375 6.71875 -8.601562 7.4375 -8.125 C 8.164062 -7.644531 8.671875 -6.96875 8.953125 -6.09375 Z M 6.9375 -6.09375 "/></g></g></g><g fill="#000000" fill-opacity="1"><g transform="translate(78.567748, 22.112322)"><g><path d="M 6.21875 -1.65625 L 2.734375 -1.65625 L 2.15625 0 L 0.328125 0 L 3.46875 -8.734375 L 5.5 -8.734375 L 8.640625 0 L 6.78125 0 Z M 5.734375 -3.0625 L 4.46875 -6.71875 L 3.21875 -3.0625 Z M 5.734375 -3.0625 "/></g></g></g><g fill="#000000" fill-opacity="1"><g transform="translate(86.783866, 22.112322)"><g><path d="M 2.609375 -1.390625 L 5.484375 -1.390625 L 5.484375 0 L 0.859375 0 L 0.859375 -8.71875 L 2.609375 -8.71875 Z M 2.609375 -1.390625 "/></g></g></g><g fill="#000000" fill-opacity="1"><g transform="translate(91.785965, 22.112322)"><g><path d="M 2.609375 -8.71875 L 2.609375 0 L 0.859375 0 L 0.859375 -8.71875 Z M 2.609375 -8.71875 "/></g></g></g><g fill="#000000" fill-opacity="1"><g transform="translate(94.524498, 22.112322)"><g/></g></g><g fill="#000000" fill-opacity="1"><g transform="translate(96.762793, 22.112322)"><g><path d="M 3.90625 -8.71875 C 4.820312 -8.71875 5.628906 -8.539062 6.328125 -8.1875 C 7.023438 -7.832031 7.5625 -7.320312 7.9375 -6.65625 C 8.320312 -5.988281 8.515625 -5.21875 8.515625 -4.34375 C 8.515625 -3.46875 8.320312 -2.703125 7.9375 -2.046875 C 7.5625 -1.398438 7.023438 -0.894531 6.328125 -0.53125 C 5.628906 -0.175781 4.820312 0 3.90625 0 L 0.859375 0 L 0.859375 -8.71875 Z M 3.84375 -1.484375 C 4.757812 -1.484375 5.46875 -1.734375 5.96875 -2.234375 C 6.46875 -2.734375 6.71875 -3.4375 6.71875 -4.34375 C 6.71875 -5.257812 6.46875 -5.972656 5.96875 -6.484375 C 5.46875 -6.992188 4.757812 -7.25 3.84375 -7.25 L 2.609375 -7.25 L 2.609375 -1.484375 Z M 3.84375 -1.484375 "/></g></g></g><g fill="#000000" fill-opacity="1"><g transform="translate(104.991413, 22.112322)"><g><path d="M 2.609375 -7.3125 L 2.609375 -5.125 L 5.546875 -5.125 L 5.546875 -3.734375 L 2.609375 -3.734375 L 2.609375 -1.421875 L 5.921875 -1.421875 L 5.921875 0 L 0.859375 0 L 0.859375 -8.734375 L 5.921875 -8.734375 L 5.921875 -7.3125 Z M 2.609375 -7.3125 "/></g></g></g><g fill="#000000" fill-opacity="1"><g transform="translate(110.906445, 22.112322)"><g><path d="M 2.59375 -8.71875 L 2.59375 -3.328125 C 2.59375 -2.734375 2.742188 -2.28125 3.046875 -1.96875 C 3.359375 -1.65625 3.789062 -1.5 4.34375 -1.5 C 4.914062 -1.5 5.351562 -1.65625 5.65625 -1.96875 C 5.96875 -2.28125 6.125 -2.734375 6.125 -3.328125 L 6.125 -8.71875 L 7.890625 -8.71875 L 7.890625 -3.34375 C 7.890625 -2.59375 7.726562 -1.960938 7.40625 -1.453125 C 7.082031 -0.941406 6.648438 -0.554688 6.109375 -0.296875 C 5.578125 -0.0351562 4.984375 0.09375 4.328125 0.09375 C 3.671875 0.09375 3.078125 -0.0351562 2.546875 -0.296875 C 2.023438 -0.554688 1.609375 -0.941406 1.296875 -1.453125 C 0.992188 -1.960938 0.84375 -2.59375 0.84375 -3.34375 L 0.84375 -8.71875 Z M 2.59375 -8.71875 "/></g></g></g><g fill="#000000" fill-opacity="1"><g transform="translate(118.884952, 22.112322)"><g><path d="M 6.796875 -8.71875 L 6.796875 -7.3125 L 4.46875 -7.3125 L 4.46875 0 L 2.71875 0 L 2.71875 -7.3125 L 0.40625 -7.3125 L 0.40625 -8.71875 Z M 6.796875 -8.71875 "/></g></g></g><g fill="#000000" fill-opacity="1"><g transform="translate(125.362747, 22.112322)"><g><path d="M 3.875 0.09375 C 3.269531 0.09375 2.722656 -0.0078125 2.234375 -0.21875 C 1.742188 -0.425781 1.359375 -0.726562 1.078125 -1.125 C 0.796875 -1.519531 0.648438 -1.984375 0.640625 -2.515625 L 2.515625 -2.515625 C 2.535156 -2.148438 2.660156 -1.863281 2.890625 -1.65625 C 3.117188 -1.445312 3.4375 -1.34375 3.84375 -1.34375 C 4.25 -1.34375 4.566406 -1.441406 4.796875 -1.640625 C 5.035156 -1.835938 5.15625 -2.09375 5.15625 -2.40625 C 5.15625 -2.664062 5.070312 -2.878906 4.90625 -3.046875 C 4.75 -3.210938 4.550781 -3.34375 4.3125 -3.4375 C 4.082031 -3.539062 3.757812 -3.648438 3.34375 -3.765625 C 2.769531 -3.929688 2.304688 -4.09375 1.953125 -4.25 C 1.597656 -4.414062 1.289062 -4.660156 1.03125 -4.984375 C 0.78125 -5.316406 0.65625 -5.757812 0.65625 -6.3125 C 0.65625 -6.832031 0.785156 -7.28125 1.046875 -7.65625 C 1.304688 -8.039062 1.671875 -8.332031 2.140625 -8.53125 C 2.609375 -8.738281 3.140625 -8.84375 3.734375 -8.84375 C 4.640625 -8.84375 5.375 -8.625 5.9375 -8.1875 C 6.5 -7.75 6.804688 -7.140625 6.859375 -6.359375 L 4.9375 -6.359375 C 4.914062 -6.660156 4.785156 -6.910156 4.546875 -7.109375 C 4.316406 -7.304688 4.003906 -7.40625 3.609375 -7.40625 C 3.265625 -7.40625 2.988281 -7.316406 2.78125 -7.140625 C 2.582031 -6.960938 2.484375 -6.707031 2.484375 -6.375 C 2.484375 -6.144531 2.5625 -5.953125 2.71875 -5.796875 C 2.875 -5.640625 3.066406 -5.515625 3.296875 -5.421875 C 3.523438 -5.328125 3.847656 -5.21875 4.265625 -5.09375 C 4.828125 -4.925781 5.285156 -4.757812 5.640625 -4.59375 C 6.003906 -4.425781 6.316406 -4.175781 6.578125 -3.84375 C 6.835938 -3.507812 6.96875 -3.070312 6.96875 -2.53125 C 6.96875 -2.0625 6.84375 -1.625 6.59375 -1.21875 C 6.351562 -0.820312 6 -0.503906 5.53125 -0.265625 C 5.070312 -0.0234375 4.519531 0.09375 3.875 0.09375 Z M 3.875 0.09375 "/></g></g></g><g fill="#000000" fill-opacity="1"><g transform="translate(132.240733, 22.112322)"><g><path d="M 0.4375 -4.375 C 0.4375 -5.226562 0.628906 -5.992188 1.015625 -6.671875 C 1.398438 -7.359375 1.925781 -7.890625 2.59375 -8.265625 C 3.269531 -8.648438 4.023438 -8.84375 4.859375 -8.84375 C 5.835938 -8.84375 6.691406 -8.59375 7.421875 -8.09375 C 8.160156 -7.59375 8.675781 -6.898438 8.96875 -6.015625 L 6.953125 -6.015625 C 6.753906 -6.429688 6.472656 -6.742188 6.109375 -6.953125 C 5.742188 -7.160156 5.320312 -7.265625 4.84375 -7.265625 C 4.34375 -7.265625 3.894531 -7.144531 3.5 -6.90625 C 3.101562 -6.664062 2.789062 -6.328125 2.5625 -5.890625 C 2.34375 -5.460938 2.234375 -4.957031 2.234375 -4.375 C 2.234375 -3.800781 2.34375 -3.296875 2.5625 -2.859375 C 2.789062 -2.421875 3.101562 -2.082031 3.5 -1.84375 C 3.894531 -1.601562 4.34375 -1.484375 4.84375 -1.484375 C 5.320312 -1.484375 5.742188 -1.585938 6.109375 -1.796875 C 6.472656 -2.015625 6.753906 -2.332031 6.953125 -2.75 L 8.96875 -2.75 C 8.675781 -1.851562 8.164062 -1.15625 7.4375 -0.65625 C 6.707031 -0.164062 5.847656 0.078125 4.859375 0.078125 C 4.023438 0.078125 3.269531 -0.109375 2.59375 -0.484375 C 1.925781 -0.867188 1.398438 -1.398438 1.015625 -2.078125 C 0.628906 -2.753906 0.4375 -3.519531 0.4375 -4.375 Z M 0.4375 -4.375 "/></g></g></g><g fill="#000000" fill-opacity="1"><g transform="translate(141.107157, 22.112322)"><g><path d="M 8.09375 -8.71875 L 8.09375 0 L 6.34375 0 L 6.34375 -3.71875 L 2.609375 -3.71875 L 2.609375 0 L 0.859375 0 L 0.859375 -8.71875 L 2.609375 -8.71875 L 2.609375 -5.140625 L 6.34375 -5.140625 L 6.34375 -8.71875 Z M 8.09375 -8.71875 "/></g></g></g><g fill="#000000" fill-opacity="1"><g transform="translate(76.41318, 30.389799)"><g><path d="M 0.046875 0 L 1.71875 -4.1875 L 2.65625 -4.1875 L 4.3125 0 L 3.296875 0 L 3.015625 -0.71875 L 1.359375 -0.71875 L 1.078125 0 Z M 1.59375 -1.46875 L 2.78125 -1.46875 L 2.1875 -3 Z M 1.59375 -1.46875 "/></g></g></g><g fill="#000000" fill-opacity="1"><g transform="translate(84.158811, 30.389799)"><g><path d="M 2.421875 0.078125 C 2.003906 0.078125 1.628906 -0.0078125 1.296875 -0.1875 C 0.972656 -0.375 0.71875 -0.628906 0.53125 -0.953125 C 0.34375 -1.285156 0.25 -1.664062 0.25 -2.09375 C 0.25 -2.519531 0.34375 -2.894531 0.53125 -3.21875 C 0.71875 -3.550781 0.972656 -3.804688 1.296875 -3.984375 C 1.617188 -4.171875 1.992188 -4.265625 2.421875 -4.265625 C 2.773438 -4.265625 3.097656 -4.195312 3.390625 -4.0625 C 3.691406 -3.925781 3.941406 -3.734375 4.140625 -3.484375 C 4.335938 -3.242188 4.476562 -2.957031 4.5625 -2.625 L 3.578125 -2.625 C 3.492188 -2.851562 3.347656 -3.035156 3.140625 -3.171875 C 2.941406 -3.304688 2.710938 -3.375 2.453125 -3.375 C 2.210938 -3.375 2 -3.316406 1.8125 -3.203125 C 1.625 -3.097656 1.476562 -2.945312 1.375 -2.75 C 1.28125 -2.5625 1.234375 -2.34375 1.234375 -2.09375 C 1.234375 -1.84375 1.28125 -1.617188 1.375 -1.421875 C 1.476562 -1.234375 1.625 -1.082031 1.8125 -0.96875 C 2 -0.863281 2.207031 -0.8125 2.4375 -0.8125 C 2.71875 -0.8125 2.960938 -0.882812 3.171875 -1.03125 C 3.378906 -1.175781 3.523438 -1.367188 3.609375 -1.609375 L 4.59375 -1.609375 C 4.519531 -1.265625 4.378906 -0.960938 4.171875 -0.703125 C 3.972656 -0.453125 3.722656 -0.257812 3.421875 -0.125 C 3.117188 0.0078125 2.785156 0.078125 2.421875 0.078125 Z M 2.421875 0.078125 "/></g></g></g><g fill="#000000" fill-opacity="1"><g transform="translate(92.365673, 30.389799)"><g><path d="M 0.046875 0 L 1.71875 -4.1875 L 2.65625 -4.1875 L 4.3125 0 L 3.296875 0 L 3.015625 -0.71875 L 1.359375 -0.71875 L 1.078125 0 Z M 1.59375 -1.46875 L 2.78125 -1.46875 L 2.1875 -3 Z M 1.59375 -1.46875 "/></g></g></g><g fill="#000000" fill-opacity="1"><g transform="translate(100.111304, 30.389799)"><g><path d="M 0.5 0 L 0.5 -4.1875 L 2.15625 -4.1875 C 2.601562 -4.1875 2.988281 -4.097656 3.3125 -3.921875 C 3.644531 -3.742188 3.90625 -3.5 4.09375 -3.1875 C 4.28125 -2.875 4.375 -2.507812 4.375 -2.09375 C 4.375 -1.675781 4.28125 -1.3125 4.09375 -1 C 3.90625 -0.6875 3.644531 -0.441406 3.3125 -0.265625 C 2.988281 -0.0859375 2.601562 0 2.15625 0 Z M 1.453125 -0.875 L 2.140625 -0.875 C 2.390625 -0.875 2.609375 -0.921875 2.796875 -1.015625 C 2.984375 -1.117188 3.128906 -1.265625 3.234375 -1.453125 C 3.335938 -1.640625 3.390625 -1.851562 3.390625 -2.09375 C 3.390625 -2.34375 3.335938 -2.554688 3.234375 -2.734375 C 3.128906 -2.921875 2.976562 -3.0625 2.78125 -3.15625 C 2.59375 -3.257812 2.375 -3.3125 2.125 -3.3125 L 1.453125 -3.3125 Z M 1.453125 -0.875 "/></g></g></g><g fill="#000000" fill-opacity="1"><g transform="translate(108.108517, 30.389799)"><g><path d="M 0.5 0 L 0.5 -4.1875 L 3.25 -4.1875 L 3.25 -3.390625 L 1.453125 -3.390625 L 1.453125 -2.515625 L 3.09375 -2.515625 L 3.09375 -1.71875 L 1.453125 -1.71875 L 1.453125 -0.8125 L 3.328125 -0.8125 L 3.328125 0 Z M 0.5 0 "/></g></g></g><g fill="#000000" fill-opacity="1"><g transform="translate(115.111387, 30.389799)"><g><path d="M 0.5 0 L 0.5 -4.1875 L 1.3125 -4.1875 L 2.796875 -2.015625 L 4.28125 -4.1875 L 5.09375 -4.1875 L 5.09375 0 L 4.140625 0 L 4.140625 -2.515625 L 3.125 -1.03125 L 2.46875 -1.03125 L 1.453125 -2.53125 L 1.453125 0 Z M 0.5 0 "/></g></g></g><g fill="#000000" fill-opacity="1"><g transform="translate(124.078982, 30.389799)"><g><path d="M 1.59375 0 L 1.59375 -1.46875 L 0.046875 -4.1875 L 1.140625 -4.1875 L 1.65625 -3.21875 L 2.078125 -2.453125 L 2.484375 -3.21875 L 3 -4.1875 L 4.09375 -4.1875 L 2.546875 -1.484375 L 2.546875 0 Z M 1.59375 0 "/></g></g></g><g fill="#000000" fill-opacity="1"><g transform="translate(20.597987, 24.33384)"><g><path d="M 0.875 -6.21875 L 0.390625 -6.015625 L 1 -4.59375 L 2.03125 -6.703125 L 1.390625 -6.4375 L 0.921875 -7.5625 L 3.8125 -8.78125 L 4.28125 -7.65625 L 3.78125 -7.4375 L 3 -5.8125 L 5.890625 -3.828125 L 6.40625 -4.03125 L 6.890625 -2.890625 L 3.484375 -1.46875 L 3 -2.609375 L 3.59375 -2.859375 L 2.046875 -3.921875 L 1.625 -3.109375 L 2 -2.1875 L 2.484375 -2.390625 L 2.96875 -1.25 L 0.21875 -0.09375 L -0.265625 -1.234375 L 0.203125 -1.4375 L -1.40625 -5.265625 L -1.875 -5.0625 L -2.34375 -6.1875 L 0.40625 -7.34375 Z M 0.875 -6.21875 "/></g></g></g><g fill="#000000" fill-opacity="1"><g transform="translate(26.470052, 21.687338)"><g><path d="M 0.234375 0 L 0.234375 -1.25 L 0.828125 -1.25 L 0.8125 -5.359375 L 0.21875 -5.359375 L 0.21875 -6.609375 L 3.109375 -6.609375 C 3.867188 -6.617188 4.515625 -6.476562 5.046875 -6.1875 C 5.585938 -5.90625 6 -5.519531 6.28125 -5.03125 C 6.5625 -4.550781 6.707031 -4.007812 6.71875 -3.40625 C 6.71875 -2.332031 6.398438 -1.5 5.765625 -0.90625 C 5.140625 -0.3125 4.242188 -0.0078125 3.078125 0 Z M 2.765625 -1.25 L 3.125 -1.25 C 3.457031 -1.269531 3.726562 -1.375 3.9375 -1.5625 C 4.144531 -1.757812 4.296875 -2.019531 4.390625 -2.34375 C 4.484375 -2.664062 4.53125 -3.019531 4.53125 -3.40625 C 4.519531 -3.75 4.46875 -4.066406 4.375 -4.359375 C 4.28125 -4.660156 4.128906 -4.90625 3.921875 -5.09375 C 3.710938 -5.28125 3.441406 -5.367188 3.109375 -5.359375 L 2.75 -5.359375 Z M 2.765625 -1.25 "/></g></g></g><g fill="#000000" fill-opacity="1"><g transform="translate(32.04334, 21.327437)"><g><path d="M 7.046875 2.9375 L 3.546875 1.484375 L 4.015625 0.34375 L 4.859375 0.6875 L 4.921875 0.015625 L 3.125 -0.734375 L 2.6875 -0.21875 L 3.359375 0.0625 L 2.890625 1.203125 L 0.125 0.046875 L 0.59375 -1.09375 L 1.1875 -0.84375 L 3.984375 -4.171875 L 3.625 -4.328125 L 4.09375 -5.453125 L 7.4375 -4.046875 L 6.90625 1.546875 L 7.515625 1.796875 Z M 3.875 -1.640625 L 5.03125 -1.15625 L 5.25 -3.296875 Z M 3.875 -1.640625 "/></g></g></g></svg>